<?xml version="1.0" encoding="utf-8"?>
<!-- Generator: Adobe Illustrator 25.3.1, SVG Export Plug-In . SVG Version: 6.00 Build 0)  -->
<svg version="1.1" id="Layer_1" xmlns="http://www.w3.org/2000/svg" xmlns:xlink="http://www.w3.org/1999/xlink" x="0px" y="0px"
	 viewBox="0 0 164 140" style="enable-background:new 0 0 164 140;" xml:space="preserve">
<style type="text/css">
	.st0{fill:#5E99BC;}
</style>
<g>
	<g>
		<path class="st0" d="M82.51,69.08c0.18,3.01,0.33,6.03,0.45,9.05l0.34,9.05l0.24,9.05c0.07,3.02,0.11,6.04,0.12,9.06
			c-0.18-3.02-0.33-6.03-0.45-9.05l-0.34-9.05l-0.24-9.05C82.57,75.12,82.53,72.1,82.51,69.08z"/>
	</g>
	<g>
		<path class="st0" d="M79.3,69.4c0.15,3,0.28,6.01,0.37,9.02l0.26,9.02l0.16,9.02c0.04,3.01,0.05,6.01,0.04,9.02
			c-0.15-3-0.28-6.01-0.38-9.02l-0.26-9.02l-0.16-9.02C79.3,75.41,79.29,72.41,79.3,69.4z"/>
	</g>
	<g>
		<path class="st0" d="M84.37,69.92c0.17,2.95,0.31,5.91,0.43,8.86l0.31,8.86l0.21,8.87c0.06,2.96,0.09,5.91,0.09,8.87
			c-0.17-2.95-0.31-5.91-0.43-8.86l-0.31-8.87l-0.21-8.87C84.41,75.83,84.38,72.88,84.37,69.92z"/>
	</g>
	<g>
		<path class="st0" d="M40.77,72.75c3.42-0.89,6.93-1.38,10.41-1.96c3.49-0.55,6.98-1.04,10.48-1.55l10.5-1.42
			c3.5-0.47,7-0.89,10.5-1.41c-3.47,0.68-6.96,1.21-10.45,1.74l-10.49,1.52l-10.49,1.45l-5.24,0.74
			C44.24,72.12,42.48,72.33,40.77,72.75z"/>
	</g>
	<g>
		<path class="st0" d="M82.72,66.23c0.74,0.1,1.42,0.44,2.11,0.7c0.69,0.28,1.37,0.57,2.05,0.87l4.04,1.86
			c2.68,1.27,5.33,2.59,8,3.89l7.93,4.01l3.96,2.02c1.33,0.66,2.62,1.4,4,1.92c-2.79-1.01-5.43-2.38-8.11-3.64l-7.98-3.92
			l-7.95-3.98l-3.98-1.97c-0.66-0.33-1.33-0.65-2-0.96C84.11,66.73,83.45,66.36,82.72,66.23z"/>
	</g>
	<g>
		<path class="st0" d="M40.4,69.87l10.5-1.96l10.52-1.87l10.53-1.76c3.52-0.56,7.03-1.13,10.57-1.57c-1.76,0.28-3.5,0.62-5.26,0.95
			L72,64.61l-10.51,1.86C54.47,67.65,47.45,68.87,40.4,69.87z"/>
	</g>
	<g>
		<path class="st0" d="M71.85,63.79c-1.45-0.37-2.71-1.45-3.31-2.86c-0.31-0.7-0.38-1.49-0.34-2.24c0.01-0.38,0.09-0.77,0.07-1.1
			c-0.01-0.35-0.25-0.53-0.61-0.62c-2.88-0.89-5.54-2.3-8.23-3.58l0.23-0.03l-8.08,7l0.06-0.17c0.4,1.68,0.01,3.46-0.83,4.91
			c-0.86,1.45-2.09,2.67-3.56,3.46c1.43-0.85,2.59-2.12,3.37-3.57c0.79-1.44,1.1-3.15,0.69-4.72l-0.03-0.1l0.08-0.07l8.01-7.05
			l0.11-0.1l0.13,0.06c2.68,1.32,5.33,2.7,8.14,3.66c0.18,0.06,0.38,0.13,0.55,0.3c0.17,0.17,0.24,0.4,0.25,0.6
			c0.01,0.42-0.09,0.76-0.1,1.13c-0.06,0.73,0,1.47,0.26,2.16C69.24,62.24,70.42,63.36,71.85,63.79z"/>
	</g>
	<g>
		<path class="st0" d="M62.26,60.72c-0.79-0.29-1.75-0.11-2.15,0.56c-0.39,0.65-0.58,1.58-0.16,2.18c0.18,0.3,0.55,0.52,0.84,0.45
			c0.12-0.02,0.22-0.17,0.35-0.35l0.36-0.5c0.45-0.67,0.77-1.49,0.55-2.33c0.4,0.78,0.16,1.76-0.27,2.5
			c-0.1,0.19-0.22,0.38-0.34,0.55c-0.12,0.15-0.24,0.41-0.54,0.51c-0.57,0.14-1.04-0.19-1.31-0.58c-0.27-0.41-0.32-0.92-0.25-1.36
			c0.08-0.45,0.21-0.88,0.5-1.25C60.42,60.3,61.56,60.26,62.26,60.72z"/>
	</g>
	<g>
		<path class="st0" d="M61.94,60.58c-0.29-0.44-0.69-0.82-1.16-0.98c-0.47-0.17-0.99-0.08-1.4,0.19c-0.81,0.55-1.38,1.52-1.55,2.49
			c-0.09,0.48-0.04,0.98,0.22,1.38c0.25,0.4,0.71,0.64,1.18,0.74c0.98,0.19,1.99-0.47,2.5-1.38c-0.35,0.99-1.37,1.85-2.55,1.71
			c-0.56-0.06-1.12-0.36-1.46-0.85s-0.41-1.12-0.32-1.67c0.1-0.56,0.33-1.07,0.63-1.53s0.67-0.89,1.18-1.17
			c0.49-0.28,1.13-0.35,1.64-0.1S61.73,60.1,61.94,60.58z"/>
	</g>
	<g>
		<path class="st0" d="M61.57,59.16c-1.56-0.38-3.25,0.46-3.86,1.86c-0.32,0.69-0.43,1.47-0.3,2.22c0.13,0.74,0.51,1.45,1.14,1.8
			c0.31,0.18,0.67,0.28,1.01,0.24c0.35-0.03,0.69-0.2,1.01-0.41c0.64-0.41,1.19-0.98,1.57-1.64c0.38-0.66,0.52-1.46,0.33-2.21
			c-0.16-0.75-0.65-1.45-1.38-1.79c0.77,0.25,1.34,0.96,1.58,1.74c0.25,0.79,0.13,1.68-0.24,2.42c-0.36,0.75-0.97,1.36-1.65,1.82
			c-0.34,0.23-0.73,0.44-1.18,0.49c-0.45,0.05-0.9-0.06-1.27-0.28c-0.77-0.45-1.18-1.3-1.31-2.11c-0.13-0.83,0-1.69,0.39-2.43
			C58.15,59.35,60.06,58.58,61.57,59.16z"/>
	</g>
	<g>
		<path class="st0" d="M74.66,53.92c-0.26,0.3-0.51,0.61-0.61,0.97c-0.08,0.35-0.09,0.74-0.01,1.1c0.09,0.35,0.26,0.66,0.56,0.76
			c0.3,0.1,0.66,0.01,0.92-0.19c0.28-0.2,0.51-0.5,0.7-0.82c0.19-0.31,0.24-0.64,0.14-0.98c-0.18-0.69-1.01-1.1-1.79-0.92
			c0.36-0.17,0.79-0.19,1.2-0.06c0.4,0.14,0.74,0.46,0.91,0.87c0.19,0.4,0.1,0.92-0.11,1.29c-0.2,0.36-0.43,0.71-0.79,0.98
			c-0.36,0.26-0.86,0.38-1.31,0.21c-0.47-0.18-0.71-0.66-0.75-1.07c-0.05-0.42,0-0.84,0.14-1.23
			C74.05,54.43,74.34,54.14,74.66,53.92z"/>
	</g>
	<g>
		<path class="st0" d="M85.09,54.64c-0.22,0.52-0.17,1.08,0,1.58c0.1,0.25,0.2,0.49,0.33,0.73c0.06,0.12,0.13,0.25,0.19,0.31
			c0.06,0.06,0.07,0.05,0.14,0.03c0.12-0.03,0.21-0.28,0.22-0.53c0.03-0.25-0.02-0.51-0.07-0.77c-0.06-0.26-0.16-0.51-0.29-0.74
			c-0.13-0.23-0.31-0.44-0.59-0.5c0.3-0.05,0.57,0.16,0.77,0.38c0.19,0.23,0.33,0.49,0.44,0.76c0.11,0.28,0.15,0.58,0.14,0.89
			c-0.02,0.27-0.03,0.69-0.45,0.91c-0.19,0.1-0.51,0.01-0.62-0.15c-0.12-0.15-0.17-0.28-0.23-0.41c-0.12-0.26-0.24-0.53-0.3-0.82
			C84.64,55.74,84.7,55.07,85.09,54.64z"/>
	</g>
	<g>
		<path class="st0" d="M73.75,63.29l-0.12-1.85l-0.07-0.92c-0.03-0.28-0.06-0.66-0.13-0.83l-0.09-0.22l0.21-0.03
			c0.86-0.14,1.71-0.32,2.55-0.58l0.31-0.1c0.1-0.01,0.31-0.13,0.52,0.04c0.17,0.18,0.15,0.35,0.16,0.48
			c-0.01,0.14-0.04,0.26-0.05,0.35c-0.07,0.41-0.05,0.83-0.01,1.26s0.11,0.87,0.14,1.32c0.01,0.23,0.01,0.45,0,0.68
			c-0.01,0.06-0.02,0.17-0.1,0.25c-0.09,0.08-0.18,0.09-0.24,0.1l-0.33,0.03c-0.88,0.07-1.76,0.12-2.64,0.16
			c0.87-0.16,1.74-0.31,2.61-0.43l0.32-0.05c0.1-0.04,0.05,0.01,0.07-0.08c0-0.21-0.01-0.42-0.04-0.64l-0.18-1.3
			c-0.05-0.44-0.09-0.9-0.02-1.37c0.02-0.12,0.04-0.22,0.04-0.3c0.01-0.08-0.03-0.16-0.02-0.14c0.08,0.01-0.23,0.07-0.43,0.13
			c-0.86,0.24-1.73,0.42-2.62,0.52l0.12-0.26c0.14,0.41,0.09,0.67,0.12,1v0.93C73.82,62.06,73.8,62.67,73.75,63.29z"/>
	</g>
	<g>
		<path class="st0" d="M45.62,68.31c-0.06-1.04-0.15-2.07-0.22-3.1l-0.01-0.2l-0.01-0.1c0-0.01-0.01-0.03,0.02-0.13
			c0-0.07,0.18-0.13,0.16-0.12l0.39-0.08l0.77-0.13l1.54-0.25l0.28-0.04l-0.03,0.28c-0.11,0.96-0.14,1.95-0.24,2.92l-0.04,0.37
			l-0.01,0.05c-0.01,0.03-0.02,0.1-0.07,0.13c-0.12,0.06-0.09,0.03-0.14,0.05L47.83,68l-0.73,0.13
			C46.6,68.21,46.11,68.29,45.62,68.31l1.42-0.37l0.71-0.19c0.11-0.04,0.29-0.08,0.17-0.04l0.01-0.36c0.02-0.98,0.06-1.96,0.14-2.95
			l0.25,0.23l-1.54,0.21l-0.77,0.11l-0.37,0.06c-0.05,0.02,0.08-0.04,0.08-0.07c0.01-0.02,0.02-0.06,0.02-0.06v0.02v0.09v0.19
			C45.73,66.23,45.75,67.28,45.62,68.31z"/>
	</g>
	<g>
		<path class="st0" d="M59.24,59.2c-0.06-0.28-0.02-0.56,0.06-0.84c0.11-0.26,0.24-0.53,0.45-0.72l0.12-0.1L60,57.59
			c0.46,0.21,0.66,0.8,0.44,1.18c-0.08-0.41-0.33-0.69-0.6-0.8l0.23-0.05c-0.14,0.2-0.32,0.38-0.43,0.6
			C59.49,58.73,59.38,58.96,59.24,59.2z"/>
	</g>
	<g>
		<path class="st0" d="M62.43,61.14c0.2-0.15,0.41-0.25,0.63-0.35c0.15-0.1,0.43,0.07,0.5,0.18c0.1,0.12,0.15,0.27,0.17,0.42
			c0.01,0.29-0.1,0.59-0.29,0.77c-0.19,0.19-0.43,0.3-0.67,0.33c0.32-0.37,0.6-0.71,0.53-1.06c0-0.08-0.02-0.16-0.06-0.23
			c-0.07-0.06-0.01-0.07-0.1-0.08C62.92,61.14,62.67,61.16,62.43,61.14z"/>
	</g>
	<g>
		<path class="st0" d="M57.06,61.92c-0.11,0.18-0.2,0.34-0.27,0.51c-0.06,0.14-0.15,0.37-0.13,0.43c-0.05-0.01,0.16,0.23,0.24,0.38
			c0.1,0.17,0.19,0.35,0.25,0.55c-0.19-0.09-0.35-0.21-0.5-0.34c-0.08-0.06-0.14-0.14-0.21-0.2c-0.04-0.05-0.2-0.18-0.2-0.36
			c0.01-0.21,0.06-0.25,0.1-0.37c0.05-0.1,0.1-0.2,0.18-0.27C56.66,62.08,56.85,61.96,57.06,61.92z"/>
	</g>
	<g>
		<path class="st0" d="M59.13,65.71c0.07,0.25,0.12,0.51,0.25,0.64c0.15,0.13,0.27,0.16,0.36,0.04c0.16-0.13,0.3-0.33,0.43-0.52
			c0.13-0.19,0.24-0.41,0.37-0.64c0.06,0.26,0.02,0.53-0.07,0.79s-0.24,0.48-0.44,0.7c-0.11,0.11-0.35,0.2-0.53,0.14
			c-0.18-0.05-0.32-0.16-0.39-0.31C58.95,66.23,59.03,65.95,59.13,65.71z"/>
	</g>
	<g>
		<path class="st0" d="M49.04,55.92l-0.13-4.33l-0.04-1.08c-0.03-0.37-0.01-0.71-0.14-1c-0.22-0.63-0.81-1.14-1.37-0.81
			c-0.56,0.29-0.96,0.92-1.18,1.56c-0.23,0.66-0.31,1.37-0.38,2.08c-0.08,1.44-0.17,2.87-0.31,4.32c-0.04-1.44-0.04-2.89-0.03-4.35
			c0.02-0.72,0.11-1.46,0.34-2.18c0.24-0.71,0.63-1.42,1.36-1.82c0.37-0.2,0.9-0.17,1.24,0.1c0.34,0.25,0.55,0.61,0.69,0.97
			c0.15,0.38,0.13,0.78,0.15,1.13c0.01,0.36,0.01,0.73,0,1.09C49.22,53.03,49.16,54.47,49.04,55.92z"/>
	</g>
	<g>
		<path class="st0" d="M55.49,55.22c-0.09-1.02-0.13-2.05-0.16-3.07c-0.03-0.51-0.02-1.02-0.03-1.54c-0.04-0.56,0.21-1.17,0.77-1.49
			c0.33-0.16,0.71-0.04,0.94,0.14c0.24,0.18,0.41,0.44,0.51,0.7c0.19,0.54,0.19,1.08,0.16,1.59c-0.06,1.02-0.12,2.05-0.24,3.07
			c-0.07-1.03-0.08-2.05-0.1-3.07c-0.01-0.5-0.01-1.01-0.19-1.44c-0.14-0.41-0.61-0.77-0.89-0.6c-0.82,0.42-0.49,1.65-0.6,2.64
			C55.62,53.18,55.58,54.2,55.49,55.22z"/>
	</g>
	<g>
		<path class="st0" d="M52.81,46.85c0.14,1.32,0.12,2.63,0.11,3.94c-0.06,1.31-0.11,2.62-0.32,3.93c-0.15-1.31-0.12-2.63-0.11-3.94
			C52.55,49.47,52.59,48.15,52.81,46.85z"/>
	</g>
	<g>
		<path class="st0" d="M50.59,47.54c0.22,1.29,0.24,2.59,0.25,3.89c-0.04,1.3-0.11,2.6-0.36,3.89c-0.1-1.31-0.06-2.6-0.07-3.89
			C50.45,50.13,50.45,48.84,50.59,47.54z"/>
	</g>
	<g>
		<path class="st0" d="M54.12,47.59c0.17,1.29,0.17,2.58,0.18,3.87c-0.04,1.29-0.06,2.58-0.25,3.86c-0.17-1.29-0.17-2.58-0.18-3.87
			C53.91,50.16,53.93,48.87,54.12,47.59z"/>
	</g>
	<g>
		<path class="st0" d="M58.8,50.45c0.25,0.48,0.3,1,0.33,1.52c-0.02,0.52-0.06,1.04-0.29,1.53c-0.12-0.53-0.11-1.03-0.14-1.53
			C58.72,51.47,58.69,50.97,58.8,50.45z"/>
	</g>
	<g>
		<path class="st0" d="M44.34,49.11c0.14,1.31,0.11,2.61,0.09,3.92c-0.07,1.31-0.12,2.61-0.34,3.91c-0.14-1.31-0.11-2.62-0.09-3.92
			C44.07,51.72,44.12,50.42,44.34,49.11z"/>
	</g>
	<g>
		<path class="st0" d="M44.02,59.75c0.07,1.53,0.05,3.04,0.03,4.57c-0.06,1.52-0.11,3.05-0.4,4.56c-0.07-1.53-0.05-3.04-0.03-4.57
			C43.68,62.79,43.73,61.26,44.02,59.75z"/>
	</g>
	<g>
		<path class="st0" d="M50.13,58.62c0.03,0.58,0.11,1.16,0.15,1.74c0.05,0.58,0.07,1.16,0.1,1.75c0,0.58,0.02,1.17-0.01,1.75
			s-0.06,1.17-0.2,1.75l-0.14-1.75l-0.09-1.74c0-0.58-0.02-1.17,0-1.75C49.97,59.79,49.98,59.2,50.13,58.62z"/>
	</g>
	<g>
		<path class="st0" d="M42.67,49.51c0.15,1.3,0.17,2.59,0.19,3.89c-0.03,1.3-0.07,2.6-0.34,3.88c-0.09-1.3-0.08-2.59-0.1-3.88
			C42.46,52.1,42.46,50.8,42.67,49.51z"/>
	</g>
	<g>
		<path class="st0" d="M42.07,60.09c0.1,1.51,0.03,3.01-0.03,4.52c-0.11,1.5-0.2,3-0.46,4.49c-0.1-1.51-0.03-3.01,0.03-4.52
			C41.71,63.09,41.81,61.58,42.07,60.09z"/>
	</g>
	<g>
		<path class="st0" d="M42.39,49.48c0.73-0.49,1.58-0.78,2.42-1.01c0.84-0.23,1.69-0.41,2.54-0.62c1.7-0.35,3.4-0.72,5.14-0.92
			c-1.66,0.55-3.36,0.94-5.05,1.34l-2.56,0.52C44.04,48.95,43.2,49.15,42.39,49.48z"/>
	</g>
	<g>
		<path class="st0" d="M52.53,46.81c1.31,0.07,2.53,0.65,3.66,1.27c1.11,0.67,2.19,1.35,3.2,2.16c-1.2-0.5-2.3-1.17-3.42-1.79
			C54.88,47.79,53.76,47.22,52.53,46.81z"/>
	</g>
	<g>
		<path class="st0" d="M59.73,53.34c0.03-0.41,0.07-0.86-0.13-1.18c-0.17-0.34-0.62-0.44-0.9-0.88l-0.13-0.2l0.26-0.05
			c0.31-0.06,0.62-0.13,0.92-0.25c0.3-0.1,0.54-0.34,0.97-0.41c0.22-0.03,0.44,0.05,0.59,0.13l0.45,0.22l0.9,0.44l0.48,0.23
			l-0.51,0.13l-0.4,0.1l-0.2,0.05c-0.06,0.01-0.16,0.04-0.12,0.02c0.03-0.07-0.02,0.18-0.02,0.29l-0.04,0.41
			c-0.02,0.27-0.07,0.55-0.08,0.81c-0.01,0.25,0.13,0.54,0.41,0.58c-0.3,0.04-0.53-0.28-0.56-0.56c-0.04-0.29-0.03-0.56-0.03-0.84
			v-0.41v-0.21c0-0.05-0.02-0.18,0.09-0.31c0.14-0.1,0.19-0.09,0.26-0.12l0.2-0.06l0.4-0.11l-0.03,0.36l-0.91-0.41
			c-0.3-0.12-0.63-0.33-0.83-0.3c-0.24,0.01-0.54,0.23-0.87,0.35c-0.33,0.12-0.67,0.21-1.02,0.23L59,51.11
			c0.12,0.31,0.59,0.5,0.79,0.94C59.95,52.5,59.84,52.94,59.73,53.34z"/>
	</g>
	<g>
		<path class="st0" d="M62.23,53.81c0.95-0.34,1.94-0.52,2.92-0.71c0.99-0.14,1.98-0.3,2.99-0.29c-0.96,0.35-1.94,0.52-2.92,0.71
			C64.23,53.66,63.25,53.82,62.23,53.81z"/>
	</g>
	<g>
		<path class="st0" d="M54.07,55.65c0.49-0.33,1.04-0.47,1.6-0.59c0.56-0.07,1.11-0.13,1.69-0.08c-0.51,0.31-1.08,0.39-1.61,0.51
			C55.19,55.55,54.65,55.66,54.07,55.65z"/>
	</g>
	<g>
		<path class="st0" d="M60.27,44.51c0.33-0.2,0.83-0.03,1,0.38l-0.11-0.07l0.87-0.11c0.08-0.01,0.12-0.02,0.24-0.02
			c0.05,0,0.16,0.02,0.22,0.12c0.04,0.07,0.06,0.15,0.06,0.19c0.02,0.2-0.06,0.39-0.17,0.53c-0.12,0.14-0.28,0.25-0.47,0.29
			c-0.18,0.05-0.46-0.04-0.43-0.03c0.05,0,0.08-0.1,0.06-0.02l-0.01,0.22l-0.01,0.44l-0.1,1.74l-0.08,0.87
			c0.01,0.12-0.03,0.26,0.04,0.33c0.07,0.09,0.19,0.16,0.31,0.22l0.17,0.09l-0.16,0.07c-0.24,0.1-0.41,0.37-0.4,0.66
			c-0.09-0.28,0.04-0.63,0.32-0.81l0.01,0.15c-0.14-0.05-0.3-0.09-0.43-0.23c-0.15-0.15-0.12-0.34-0.15-0.5l-0.01-0.87l0.04-1.74
			l0.02-0.44l0.01-0.22c0-0.04,0.01-0.11,0.05-0.19c0.04-0.09,0.15-0.15,0.23-0.16c0.32,0,0.32,0.07,0.43,0.04
			c0.09-0.02,0.19-0.07,0.26-0.15s0.11-0.18,0.11-0.27c0-0.04,0-0.03,0.01-0.02c0.02,0.03,0.05,0.03,0.03,0.02
			c-0.03-0.01-0.13,0-0.19,0l-0.87,0.02h-0.09l-0.01-0.08C61.01,44.65,60.63,44.41,60.27,44.51z"/>
	</g>
	<g>
		<path class="st0" d="M60.25,44.58c0.04,0.19,0.07,0.38,0.1,0.57l0.01,0.04l-0.04,0.02c-0.23,0.13-0.48,0.19-0.67,0.29
			c-0.18,0.08-0.29,0.3-0.25,0.43c0.03,0.1,0.16,0.12,0.4,0.05l0.19-0.04c0.04,0.01,0.19-0.09,0.37,0.11
			c0.09,0.2,0.04,0.21,0.06,0.28l0.01,0.18c0.04,0.98,0.07,1.96,0.04,2.93l-0.01,0.18l-0.16-0.03c-0.1-0.02-0.22-0.01-0.32,0.03
			l0.02-0.2c0.35,0.31,0.41,0.85,0.18,1.19c0.13-0.39-0.03-0.82-0.32-1l-0.16-0.1l0.18-0.1c0.14-0.07,0.3-0.11,0.46-0.1l-0.16,0.15
			c-0.1-0.98-0.14-1.95-0.16-2.93v-0.18c0.01-0.05-0.02-0.16,0.01-0.08c0.1,0.09,0.1,0.03,0.03,0.06l-0.17,0.03
			c-0.12,0.02-0.26,0.06-0.44,0.03s-0.35-0.2-0.38-0.39c-0.03-0.37,0.22-0.62,0.48-0.72s0.5-0.1,0.72-0.18l-0.04,0.06
			C60.22,44.97,60.23,44.78,60.25,44.58z"/>
	</g>
	<g>
		<path class="st0" d="M41.56,59.75c2.01-0.6,4.05-1.03,6.09-1.48c1.03-0.19,2.05-0.41,3.08-0.58c0.52-0.08,1.02-0.18,1.56-0.25
			c0.54-0.02,1.08,0.09,1.54,0.35c-0.5-0.17-1.02-0.23-1.52-0.13c-0.49,0.1-1.01,0.24-1.51,0.36c-1.02,0.24-2.04,0.45-3.06,0.68
			C45.69,59.09,43.64,59.5,41.56,59.75z"/>
	</g>
	<g>
		<path class="st0" d="M42.05,59.37c0.12-0.15,0.05-0.36-0.06-0.48c-0.12-0.13-0.29-0.19-0.46-0.26c-0.35-0.14-0.67-0.39-0.89-0.71
			l-0.09-0.14l0.17-0.05c1.94-0.53,3.89-1.01,5.85-1.44c1.96-0.44,3.92-0.84,5.92-1.16c-1.92,0.59-3.87,1.09-5.83,1.56
			c-1.96,0.47-3.92,0.9-5.9,1.28l0.08-0.18c0.18,0.29,0.43,0.55,0.75,0.72c0.16,0.09,0.34,0.18,0.46,0.34
			C42.16,58.99,42.19,59.24,42.05,59.37z"/>
	</g>
	<g>
		<path class="st0" d="M52.49,55.12c0.34,0.03,0.67,0.11,1,0.19c0.32,0.09,0.64,0.2,0.96,0.3l0.47,0.15l-0.42,0.23
			c-0.2,0.11-0.32,0.42-0.5,0.69c-0.18,0.27-0.36,0.53-0.58,0.78c0.07-0.32,0.18-0.63,0.29-0.93c0.05-0.15,0.12-0.29,0.2-0.45
			c0.08-0.15,0.18-0.32,0.36-0.44l0.05,0.38c-0.31-0.13-0.62-0.24-0.92-0.39C53.08,55.48,52.78,55.32,52.49,55.12z"/>
	</g>
	<g>
		<path class="st0" d="M54.21,56.24c0.34-0.28,0.77-0.35,1.16-0.43c0.41-0.03,0.79-0.07,1.22,0c-0.34,0.29-0.77,0.35-1.16,0.43
			C55.02,56.27,54.65,56.31,54.21,56.24z"/>
	</g>
	<g>
		<path class="st0" d="M42.71,48.91l0.24-1.12l0.04,0.06l-1.48-0.23l-0.74-0.12c-0.13-0.02-0.27-0.06-0.4-0.15
			c-0.06-0.04-0.12-0.09-0.17-0.18c-0.05-0.08-0.04-0.22,0.01-0.3l0.04-0.06h0.08c1.66,0.09,3.12-0.9,4.73-1.45
			c0.81-0.3,1.68-0.41,2.51-0.5c0.83-0.09,1.65-0.22,2.45-0.43s1.59-0.48,2.35-0.81c0.19-0.07,0.38-0.2,0.66-0.22
			c0.28-0.01,0.51,0.12,0.69,0.24c0.35,0.26,0.67,0.49,1.03,0.71c0.71,0.43,1.47,0.78,2.26,1.04c0.78,0.27,1.66,0.38,2.36,0.87
			c-0.74-0.42-1.59-0.48-2.41-0.7c-0.82-0.21-1.61-0.55-2.36-0.96c-0.37-0.2-0.74-0.45-1.07-0.68c-0.35-0.25-0.6-0.18-1.01,0.03
			c-0.77,0.35-1.58,0.64-2.4,0.87c-0.82,0.22-1.67,0.38-2.51,0.46c-0.84,0.09-1.66,0.18-2.43,0.45c-1.54,0.51-3.09,1.5-4.87,1.33
			L40.43,47c-0.08,0.04,0.17,0.25,0.38,0.27l0.73,0.16L43,47.75l0.05,0.01l-0.01,0.04L42.71,48.91z"/>
	</g>
	<g>
		<path class="st0" d="M61.34,48.32c0.47-0.19,1.01-0.05,1.43,0.22c0.04,0.04,0.13,0.06,0.19,0.25c0.03,0.1-0.02,0.22-0.07,0.26
			c-0.05,0.05-0.07,0.06-0.1,0.08c-0.11,0.07-0.21,0.15-0.33,0.18c-0.24,0.09-0.49,0.13-0.73,0.08c0.21-0.13,0.4-0.24,0.57-0.37
			c0.08-0.07,0.17-0.13,0.25-0.2c0.07-0.05,0.01-0.06,0.01,0.07c0.03,0.07,0.01,0.03-0.04,0C62.19,48.64,61.8,48.5,61.34,48.32z"/>
	</g>
	<g>
		<path class="st0" d="M43.78,45.76c0.02-0.29-0.14-0.52-0.32-0.68c-0.19-0.17-0.44-0.25-0.69-0.34l-0.97-0.33l1.03-0.03
			c0.27-0.01,0.53-0.05,0.78-0.13l0.37-0.14c0.12-0.04,0.24-0.13,0.45-0.17c0.45,0,0.62,0.2,0.89,0.32c0.25,0.13,0.5,0.27,0.74,0.42
			l0.05,0.03l-0.02,0.04c-0.05,0.11-0.11,0.22-0.17,0.32c0.02-0.12,0.04-0.24,0.06-0.36l0.03,0.08c-0.28-0.07-0.55-0.16-0.82-0.25
			c-0.26-0.07-0.58-0.24-0.71-0.21c-0.15,0.04-0.48,0.27-0.76,0.32c-0.29,0.08-0.6,0.11-0.9,0.1l0.07-0.36
			c0.26,0.11,0.53,0.28,0.73,0.52C43.83,45.15,43.91,45.5,43.78,45.76z"/>
	</g>
	<g>
		<path class="st0" d="M43.23,44.54c-0.03-0.56,0.37-1.02,0.57-1.46c0.24-0.44,0.4-0.92,0.53-1.4l0.24-0.84l0.17,0.84
			c0.08,0.42,0.2,0.82,0.25,1.24c0.07,0.42,0.14,0.82,0.28,1.23c-0.29-0.33-0.45-0.75-0.58-1.15c-0.15-0.4-0.24-0.81-0.36-1.22h0.41
			c-0.11,0.53-0.35,1.03-0.63,1.48C43.81,43.72,43.4,44.03,43.23,44.54z"/>
	</g>
	<g>
		<path class="st0" d="M51.51,43.78c0.1-0.48-0.2-0.96-0.58-1.08l-0.54-0.18l0.58-0.12c0.29-0.06,0.57-0.13,0.83-0.25
			c0.13-0.06,0.26-0.12,0.39-0.19c0.13-0.05,0.22-0.19,0.5-0.23c0.28,0.01,0.39,0.13,0.53,0.2l0.4,0.24
			c0.27,0.16,0.52,0.34,0.78,0.51l0.25,0.17l-0.28,0.07c-0.19,0.05-0.37,0.1-0.51,0.2c-0.13,0.1-0.24,0.3-0.16,0.49
			c-0.15-0.16-0.1-0.43,0.05-0.61c0.14-0.18,0.36-0.27,0.54-0.35l-0.03,0.24c-0.27-0.13-0.55-0.26-0.81-0.41l-0.39-0.22
			c-0.13-0.08-0.29-0.15-0.32-0.13c-0.03,0-0.18,0.08-0.32,0.16c-0.14,0.08-0.29,0.14-0.44,0.2c-0.3,0.11-0.62,0.19-0.94,0.19
			l0.04-0.3C51.58,42.67,51.77,43.35,51.51,43.78z"/>
	</g>
	<g>
		<path class="st0" d="M51.54,42.14c0.16-0.44,0.35-0.87,0.53-1.29c0.18-0.42,0.36-0.84,0.52-1.28l0.31-0.85l0.1,0.91
			c0.09,0.86,0.34,1.69,0.6,2.55c-0.58-0.7-0.88-1.59-1.03-2.49l0.41,0.05c-0.18,0.43-0.38,0.86-0.62,1.27
			C52.13,41.4,51.86,41.79,51.54,42.14z"/>
	</g>
	<g>
		<path class="st0" d="M58.1,45.71c-0.09-0.18-0.06-0.4-0.03-0.59c0.05-0.19,0.11-0.36,0.15-0.54c0.11-0.35,0.17-0.7,0.23-1.06
			l0.19-1.1l0.22,1.07c0.06,0.3,0.17,0.58,0.24,0.88c0.08,0.3,0.17,0.59,0.25,0.9c-0.22-0.24-0.39-0.51-0.54-0.79
			c-0.16-0.28-0.25-0.59-0.35-0.89l0.41-0.03c-0.04,0.39-0.17,0.76-0.31,1.12C58.39,45.07,58.13,45.33,58.1,45.71z"/>
	</g>
	<g>
		<path class="st0" d="M68.81,42.37c0.22,1.47,0.29,2.95,0.34,4.43c0,1.48-0.02,2.97-0.3,4.43c-0.09-1.48-0.09-2.95-0.14-4.43
			C68.72,45.33,68.67,43.85,68.81,42.37z"/>
	</g>
	<g>
		<path class="st0" d="M71.1,41.98c0.21,1.41,0.25,2.83,0.3,4.25c0,1.42,0.02,2.84-0.13,4.26c-0.21-1.42-0.25-2.83-0.3-4.25
			C70.96,44.82,70.95,43.4,71.1,41.98z"/>
	</g>
	<g>
		<path class="st0" d="M79.21,39.66c0.18,1.49,0.2,2.97,0.24,4.46l-0.02,2.23c-0.01,0.74-0.06,1.48-0.06,2.23
			c-0.18-0.73-0.21-1.48-0.27-2.22c-0.05-0.74-0.06-1.49-0.08-2.23C79.03,42.63,79.03,41.15,79.21,39.66z"/>
	</g>
	<g>
		<path class="st0" d="M81.91,39.17c0.17,1.47,0.18,2.94,0.2,4.41c-0.03,1.47-0.05,2.93-0.23,4.41c-0.17-1.46-0.18-2.94-0.2-4.41
			C81.71,42.11,81.73,40.63,81.91,39.17z"/>
	</g>
	<g>
		<path class="st0" d="M83.17,39.41c0.09,1.45,0.1,2.89,0.14,4.33c-0.01,1.44,0.02,2.89-0.13,4.34c-0.21-1.44-0.26-2.89-0.3-4.33
			C82.88,42.3,82.9,40.84,83.17,39.41z"/>
	</g>
	<g>
		<path class="st0" d="M87.01,42.85c0.18,1.39,0.19,2.78,0.21,4.17c-0.03,1.39-0.04,2.78-0.22,4.17c-0.18-1.39-0.19-2.78-0.21-4.17
			C86.82,45.63,86.83,44.24,87.01,42.85z"/>
	</g>
	<g>
		<path class="st0" d="M88.12,43.99c0.31,1.31,0.41,2.64,0.48,3.98c0.02,1.33,0.01,2.67-0.2,4c-0.14-1.33-0.16-2.66-0.23-3.98
			C88.15,46.66,88.07,45.33,88.12,43.99z"/>
	</g>
	<g>
		<path class="st0" d="M73,50.15c-0.16-1.69-0.27-3.39-0.36-5.09c-0.02-0.42-0.04-0.85-0.05-1.28l-0.01-0.64
			c-0.01-0.23,0.06-0.48,0.14-0.69c0.35-0.87,1.15-1.47,2.01-1.72c0.44-0.12,0.9-0.16,1.36-0.06c0.46,0.08,0.92,0.38,1.14,0.81
			c0.42,0.84,0.43,1.73,0.43,2.58c-0.01,1.7-0.03,3.4-0.09,5.1c-0.11-1.7-0.18-3.4-0.24-5.09c-0.04-0.83-0.06-1.71-0.44-2.39
			c-0.36-0.68-1.3-0.74-2.04-0.52c-0.76,0.21-1.46,0.73-1.76,1.45c-0.08,0.19-0.13,0.35-0.12,0.55v0.63l0.01,1.27
			C72.99,46.75,73.02,48.45,73,50.15z"/>
	</g>
	<g>
		<path class="st0" d="M76.47,45.94c-0.28-0.12-0.61-0.2-0.89-0.05c-0.32,0.13-0.26,0.48-0.27,0.78c0,0.35-0.17,0.65-0.27,0.93
			c-0.11,0.29-0.24,0.57-0.37,0.86l-0.32-0.25c0.32-0.28,0.72-0.45,1.14-0.5c0.4-0.07,0.88,0.05,1.18,0.17
			c0.08,0,0.06,0.02,0.08-0.05c0.02-0.08,0.02-0.19,0.03-0.28l0.05-0.57C76.82,46.61,76.82,46.15,76.47,45.94z M76.47,45.94
			c0.35,0.2,0.38,0.66,0.42,1.03l0.04,0.58c0,0.1,0.02,0.18,0.01,0.3c-0.01,0.07,0,0.14-0.08,0.21c-0.07,0.06-0.15,0.07-0.22,0.07
			c-0.43-0.08-0.74-0.09-1.1-0.02c-0.34,0.07-0.67,0.22-0.94,0.43l-0.78,0.61l0.45-0.86c0.14-0.27,0.29-0.55,0.45-0.81
			c0.16-0.28,0.34-0.52,0.38-0.8c0.03-0.15,0.04-0.31,0.09-0.47c0.04-0.17,0.19-0.29,0.34-0.34C75.87,45.72,76.19,45.81,76.47,45.94
			z"/>
	</g>
	<g>
		<path class="st0" d="M74.25,48.59c0.5,0.1,0.94,0.2,1.36,0.12c0.43-0.05,0.81-0.24,1.18-0.59c-0.02,0.26-0.18,0.5-0.38,0.68
			c-0.21,0.18-0.47,0.28-0.74,0.34C75.12,49.19,74.57,49,74.25,48.59z"/>
	</g>
	<g>
		<path class="st0" d="M73.72,49.11c-0.11-1.34-0.29-2.67-0.31-4.03c0.01-0.68,0.06-1.38,0.32-2.04c0.12-0.33,0.3-0.65,0.54-0.92
			c0.24-0.27,0.49-0.53,0.89-0.67c0.41-0.1,0.82,0.02,1.13,0.26c0.3,0.24,0.51,0.57,0.64,0.91c0.23,0.68,0.33,1.35,0.39,2.04
			c0.1,1.37-0.07,2.73-0.32,4.05l-0.02,0.09l-0.09,0.01c-1.07,0.18-2.15,0.33-3.24,0.48c1.06-0.26,2.12-0.51,3.19-0.73l-0.1,0.11
			c0.17-1.33,0.28-2.66,0.18-3.98c-0.06-0.65-0.18-1.32-0.39-1.91c-0.21-0.57-0.71-1.06-1.26-0.93c-0.5,0.18-0.97,0.76-1.19,1.33
			c-0.24,0.59-0.35,1.25-0.38,1.91C73.67,46.41,73.75,47.77,73.72,49.11z"/>
	</g>
	<g>
		<path class="st0" d="M84.26,49.06c-0.13-1.4-0.21-2.81-0.28-4.21l-0.05-1.05c-0.01-0.35-0.02-0.73,0.1-1.11
			c0.11-0.38,0.42-0.74,0.83-0.87c0.2-0.07,0.44-0.08,0.66,0.02c0.22,0.09,0.38,0.28,0.47,0.47c0.17,0.39,0.17,0.75,0.22,1.1
			l0.1,1.06c0.05,0.7,0.1,1.41,0.1,2.12c0.01,1.41-0.06,2.83-0.27,4.22c0.02-1.41,0.01-2.81-0.07-4.21c-0.05-0.7-0.09-1.4-0.16-2.09
			l-0.12-1.04c-0.05-0.35-0.07-0.71-0.2-0.96c-0.2-0.57-1.05-0.28-1.19,0.32c-0.19,0.59-0.06,1.34-0.09,2.03
			C84.31,46.25,84.31,47.66,84.26,49.06z"/>
	</g>
	<g>
		<path class="st0" d="M68.63,42.16l6.62-1.76c2.22-0.54,4.43-1.11,6.69-1.52c-2.16,0.75-4.37,1.35-6.58,1.94
			C73.13,41.35,70.91,41.91,68.63,42.16z"/>
	</g>
	<g>
		<path class="st0" d="M82.17,38.88c1.25,0.38,2.34,1.14,3.34,1.96c0.97,0.86,1.87,1.79,2.63,2.84c-1.03-0.79-1.93-1.7-2.91-2.51
			C84.28,40.33,83.26,39.58,82.17,38.88z"/>
	</g>
	<g>
		<path class="st0" d="M68.86,41.77c-0.14-0.85-0.91-1.47-1.74-1.46c-0.21-0.03-0.47-0.09-0.63-0.3c-0.08-0.1-0.14-0.22-0.14-0.36
			c-0.02-0.13,0.06-0.32,0.17-0.37c0.42-0.27,0.78-0.39,1.19-0.56c1.6-0.62,3.28-0.89,4.92-1.28c3.29-0.7,6.54-1.59,9.81-2.44
			c-3.16,1.19-6.42,2.11-9.72,2.86c-1.66,0.35-3.32,0.63-4.9,1.17c-0.38,0.13-0.82,0.29-1.12,0.45c-0.14,0.06-0.11,0.24-0.01,0.38
			c0.09,0.14,0.28,0.2,0.47,0.24C68.02,40.16,68.84,40.91,68.86,41.77z"/>
	</g>
	<g>
		<path class="st0" d="M82.67,34.81c1.49,0.93,2.91,1.97,4.25,3.11c1.35,1.13,2.61,2.36,3.8,3.65l0.11,0.12l-0.11,0.11
			c-0.28,0.28-0.67,0.33-0.98,0.32c-0.33-0.01-0.63-0.06-0.93-0.07c-0.29-0.03-0.55,0.13-0.63,0.42c-0.09,0.28-0.07,0.6-0.03,0.91
			c-0.09-0.3-0.15-0.62-0.09-0.94c0.03-0.34,0.39-0.63,0.74-0.61c0.32-0.01,0.64,0.02,0.93,0c0.3-0.01,0.57-0.08,0.74-0.27v0.24
			c-1.23-1.24-2.51-2.43-3.8-3.59C85.35,37.06,84.02,35.92,82.67,34.81z"/>
	</g>
	<g>
		<path class="st0" d="M69.67,38.04c-0.12-0.21-0.23-0.42-0.38-0.58c-0.14-0.16-0.34-0.26-0.5-0.23l-0.02-0.35
			c0.6-0.12,1.21-0.38,1.86-0.53c0.1-0.02,0.13-0.05,0.33-0.04l0.22,0.14l0.42,0.3c0.28,0.2,0.54,0.41,0.79,0.63
			c-0.31-0.12-0.61-0.24-0.89-0.38l-0.42-0.21l-0.2-0.11c0.04,0.01-0.09,0.02-0.15,0.05c-0.3,0.09-0.61,0.22-0.93,0.3
			c-0.32,0.08-0.64,0.17-0.99,0.2l-0.02-0.35c0.32,0.03,0.54,0.23,0.68,0.45C69.59,37.57,69.64,37.8,69.67,38.04z"/>
	</g>
	<g>
		<path class="st0" d="M79.86,35.62c-0.09-0.18,0.07-0.36,0.12-0.5c0.07-0.15,0-0.26-0.1-0.39c-0.21-0.25-0.5-0.41-0.8-0.49
			l-0.6-0.15l0.6-0.2c0.39-0.13,0.78-0.29,1.15-0.48l0.55-0.28c0.1-0.05,0.16-0.09,0.3-0.15c0.06-0.03,0.17-0.05,0.26-0.03
			c0.07,0.03,0.15,0.06,0.22,0.1c0.37,0.24,0.69,0.49,1.03,0.75l0.13,0.1c0.02,0.03,0.16,0.1,0.14,0.24
			c-0.13,0.23-0.24,0.15-0.3,0.22c-0.15,0.1-0.25,0.31-0.21,0.52c-0.1-0.19-0.06-0.46,0.11-0.64c0.08-0.08,0.24-0.17,0.19-0.15
			c0.01,0.08-0.09-0.03-0.19-0.07c-0.37-0.21-0.74-0.42-1.09-0.64c-0.03-0.01-0.05-0.02-0.07-0.04c-0.01-0.01-0.01,0-0.05,0.01
			l-0.26,0.15c-0.19,0.11-0.38,0.21-0.58,0.3c-0.39,0.17-0.8,0.32-1.21,0.44v-0.35c0.37,0.13,0.67,0.39,0.88,0.7
			c0.12,0.14,0.16,0.43,0.03,0.58C80,35.33,79.84,35.44,79.86,35.62z"/>
	</g>
	<g>
		<path class="st0" d="M85.61,37.1c-0.09-0.55-0.04-1.12,0.13-1.65l0.12-0.38l0.23,0.35c0.27,0.4,0.47,0.85,0.62,1.3
			c0.15,0.46,0.24,0.94,0.24,1.42l-0.59-1.28c-0.19-0.42-0.4-0.83-0.61-1.24l0.35-0.03C85.92,36.07,85.75,36.56,85.61,37.1z"/>
	</g>
	<g>
		<path class="st0" d="M79.98,33.55c-0.1-0.56,0.21-1.1,0.45-1.56c0.25-0.45,0.48-0.94,0.38-1.37l0.42-0.11
			c0.28,0.99,0.58,1.99,0.72,3.03c-0.48-0.94-0.8-1.92-1.13-2.9l0.42-0.11c0.06,0.32,0,0.63-0.1,0.9c-0.11,0.27-0.24,0.52-0.41,0.74
			C80.4,32.61,80.07,33.01,79.98,33.55z"/>
	</g>
	<g>
		<path class="st0" d="M69.83,36.51c0.25-0.97,0.49-1.96,0.52-2.94l0,0l0.12-1.1l0.3,1.06l0.81,2.86l-1.22-2.73l0.42-0.04l0,0
			C70.61,34.64,70.22,35.58,69.83,36.51z"/>
	</g>
	<g>
		<path class="st0" d="M68.82,54.53c0.18,0.46,0.19,0.92,0.22,1.38c-0.03,0.46-0.04,0.92-0.22,1.38c-0.18-0.46-0.19-0.92-0.22-1.38
			C68.63,55.45,68.65,54.99,68.82,54.53z"/>
	</g>
	<g>
		<path class="st0" d="M71.31,54.23c0.2,1.47,0.23,2.95,0.28,4.43c0,1.48,0,2.96-0.16,4.43c-0.2-1.48-0.23-2.95-0.28-4.43
			C71.16,57.19,71.15,55.72,71.31,54.23z"/>
	</g>
	<g>
		<path class="st0" d="M79.07,51.81c0.24,1.83,0.32,3.67,0.41,5.51c0.04,1.84,0.1,3.68-0.02,5.53c-0.25-1.83-0.32-3.67-0.41-5.51
			C79.01,55.5,78.95,53.66,79.07,51.81z"/>
	</g>
	<g>
		<path class="st0" d="M82.02,51.23c0.23,1.91,0.29,3.83,0.36,5.75c0.02,1.92,0.06,3.84-0.07,5.76c-0.23-1.92-0.29-3.83-0.36-5.75
			C81.92,55.07,81.89,53.15,82.02,51.23z"/>
	</g>
	<g>
		<path class="st0" d="M83.55,52.23c0.2,1.79,0.23,3.59,0.28,5.38c-0.01,1.8,0,3.59-0.16,5.39c-0.2-1.8-0.23-3.59-0.28-5.38
			C83.4,55.82,83.39,54.03,83.55,52.23z"/>
	</g>
	<g>
		<path class="st0" d="M87.35,54.34c0.21,1.77,0.25,3.55,0.3,5.33c0,1.78,0.02,3.56-0.13,5.34c-0.21-1.78-0.25-3.55-0.3-5.33
			C87.21,57.91,87.2,56.13,87.35,54.34z"/>
	</g>
	<g>
		<path class="st0" d="M88.87,55.36c0.21,1.75,0.25,3.51,0.3,5.28c0,1.76,0.02,3.53-0.13,5.29c-0.21-1.76-0.25-3.52-0.3-5.28
			C88.73,58.89,88.72,57.13,88.87,55.36z"/>
	</g>
	<g>
		<path class="st0" d="M66.96,51.74c2.52-0.75,5.08-1.34,7.63-1.95c2.56-0.55,5.13-1.12,7.73-1.53c-2.52,0.76-5.08,1.34-7.63,1.95
			C72.12,50.77,69.56,51.34,66.96,51.74z"/>
	</g>
	<g>
		<path class="st0" d="M82.54,48.07c1.35,0.82,2.67,1.69,3.96,2.6c0.65,0.45,1.3,0.9,1.93,1.38c0.63,0.47,1.28,0.93,1.89,1.42
			l0.19,0.16l-0.21,0.1c-0.46,0.22-0.91,0.17-1.3,0.33c-0.19,0.07-0.37,0.2-0.44,0.39s-0.06,0.44,0.13,0.58
			c-0.21-0.1-0.28-0.38-0.23-0.6c0.05-0.24,0.25-0.42,0.45-0.53c0.42-0.23,0.9-0.22,1.23-0.43l-0.02,0.26
			c-0.66-0.43-1.3-0.89-1.95-1.34c-0.65-0.45-1.29-0.91-1.92-1.38C84.99,50.07,83.75,49.09,82.54,48.07z"/>
	</g>
	<g>
		<path class="st0" d="M67.32,51.87c0.43,0.1,0.75,0.29,1.1,0.54c0.15,0.15,0.32,0.34,0.36,0.58c0.05,0.23-0.03,0.51-0.23,0.62
			c0.05-0.21-0.01-0.37-0.09-0.51c-0.08-0.13-0.18-0.26-0.33-0.36C67.87,52.49,67.53,52.24,67.32,51.87z"/>
	</g>
	<g>
		<path class="st0" d="M82.74,48.43c0.01,0.23-0.03,0.44-0.04,0.65c-0.02,0.19-0.02,0.4-0.02,0.62c-0.02,0.2-0.05,0.45-0.14,0.65
			c-0.09,0.21-0.21,0.4-0.36,0.57c-0.02-0.48,0.1-0.83,0.08-1.26c0.03-0.21,0.03-0.43,0.12-0.65C82.46,48.79,82.58,48.6,82.74,48.43
			z"/>
	</g>
	<g>
		<path class="st0" d="M68.25,54.07c2.28-0.57,4.56-1.09,6.84-1.61c1.15-0.23,2.29-0.49,3.44-0.7s2.31-0.45,3.48-0.53
			c-1.14,0.26-2.27,0.58-3.41,0.86c-1.14,0.28-2.28,0.53-3.42,0.8C72.89,53.35,70.59,53.85,68.25,54.07z"/>
	</g>
	<g>
		<path class="st0" d="M82.02,51.04c1.23,0.57,2.38,1.28,3.54,1.98c1.13,0.74,2.27,1.48,3.31,2.34c-1.25-0.57-2.39-1.28-3.54-1.98
			C84.2,52.64,83.07,51.91,82.02,51.04z"/>
	</g>
	<g>
		<path class="st0" d="M53.03,70.73c0.04,2.31,0.11,4.63,0.12,6.94c0.01,1.16,0.03,2.31,0.02,3.47c-0.02,1.17,0.01,2.29-0.11,3.51
			l-0.25-0.24c0.76-0.16,1.51-0.22,2.26-0.29l1.12-0.08L56.7,84c-0.02,0.01-0.09,0-0.08,0.03l0.01-0.12l0.03-0.27
			c0.11-1.48,0.15-2.99,0.2-4.48c0.12-2.99,0.23-5.99,0.39-8.98c0.03,3,0.02,6-0.02,8.99c-0.04,1.5-0.06,2.99-0.16,4.5l-0.03,0.29
			l-0.02,0.16c-0.03,0.11-0.08,0.24-0.19,0.27c-0.28,0.05-0.4,0.04-0.61,0.06l-1.12,0.09c-0.74,0.07-1.5,0.12-2.2,0.26l-0.28,0.06
			l0.03-0.3c0.11-1.08,0.1-2.28,0.13-3.43l0.06-3.47C52.89,75.36,52.95,73.05,53.03,70.73z"/>
	</g>
	<g>
		<path class="st0" d="M62.96,69.42c0.24,2.41,0.29,4.82,0.34,7.23c0,1.21,0.01,2.41-0.03,3.62c-0.05,1.2-0.05,2.42-0.24,3.61
			c0.01-1.2-0.06-2.41-0.09-3.61l-0.07-3.61C62.86,74.24,62.84,71.83,62.96,69.42z"/>
	</g>
	<g>
		<path class="st0" d="M62.96,83.84c0.77-0.17,1.53-0.22,2.31-0.28c0.77-0.01,1.55-0.04,2.33,0.14c-0.77,0.18-1.53,0.23-2.31,0.29
			C64.52,84,63.74,84.03,62.96,83.84z"/>
	</g>
	<g>
		<path class="st0" d="M67.82,83.67c-0.21-2.5-0.25-5.01-0.31-7.52c-0.01-2.51-0.02-5.02,0.13-7.53c0.21,2.51,0.25,5.01,0.31,7.52
			C67.95,78.65,67.97,81.16,67.82,83.67z"/>
	</g>
	<g>
		<path class="st0" d="M64.48,70.66c-0.66,1-0.62,2.22-0.6,3.37l0.01,3.5c0.01,1.17-0.04,2.33,0.18,3.45
			c0.11,0.55,0.28,1.11,0.65,1.44c0.37,0.34,0.92,0.22,1.29-0.16c0.75-0.76,0.84-2.01,0.79-3.13c-0.07-1.16-0.11-2.34-0.08-3.51
			c0.02-1.17,0.05-2.33,0.01-3.5c-0.01-0.3,0.01-0.58-0.1-0.84c-0.1-0.26-0.26-0.5-0.47-0.69s-0.48-0.32-0.77-0.28
			c-0.29,0.03-0.56,0.15-0.82,0.28c0.25-0.14,0.51-0.28,0.81-0.33c0.3-0.06,0.61,0.07,0.84,0.25c0.24,0.18,0.43,0.43,0.55,0.71
			c0.13,0.29,0.13,0.6,0.16,0.88c0.08,1.17,0.09,2.34,0.11,3.51c0.02,1.17,0.05,2.32,0.14,3.49c0.05,1.15,0.03,2.49-0.89,3.46
			c-0.23,0.22-0.53,0.41-0.88,0.46c-0.35,0.06-0.72-0.07-0.98-0.3c-0.51-0.47-0.66-1.11-0.77-1.68c-0.21-1.18-0.17-2.37-0.13-3.53
			l0.11-3.5C63.72,72.88,63.76,71.61,64.48,70.66z"/>
	</g>
	<g>
		<path class="st0" d="M53.81,73.09l-0.09,6.7v1.67l0.01,0.83c0.01,0.25,0.08,0.5,0.2,0.72c0.12,0.21,0.3,0.39,0.51,0.47
			c0.17,0.06,0.47,0.02,0.7-0.05c0.49-0.14,0.87-0.51,0.89-0.99l0.39-6.68l0.07-1.67c0.02-0.55-0.02-1.12-0.26-1.62
			c-0.12-0.24-0.31-0.46-0.57-0.57c-0.25-0.1-0.54-0.07-0.81,0.01C54.34,72.08,53.83,72.51,53.81,73.09z M53.81,73.09
			c0.01-0.58,0.52-1.02,1.03-1.2c0.26-0.09,0.56-0.13,0.83-0.03c0.27,0.11,0.47,0.33,0.61,0.58c0.26,0.51,0.34,1.09,0.34,1.64
			l0.01,1.68c0,2.24-0.07,4.46-0.18,6.71c-0.03,0.68-0.63,1.21-1.21,1.34c-0.3,0.07-0.58,0.14-0.95,0.03
			c-0.32-0.12-0.55-0.38-0.69-0.65c-0.15-0.28-0.21-0.58-0.21-0.89l0.03-0.84l0.08-1.68C53.63,77.55,53.78,75.32,53.81,73.09z"/>
	</g>
	<g>
		<path class="st0" d="M57.98,71.07c0.14,1.65,0.1,3.29,0.09,4.93c-0.07,1.64-0.12,3.28-0.35,4.92c-0.14-1.64-0.1-3.29-0.09-4.93
			C57.7,74.35,57.76,72.71,57.98,71.07z"/>
	</g>
	<g>
		<path class="st0" d="M57.98,71.07c0.36-0.09,0.71-0.18,1.06-0.25c0.35-0.07,0.71-0.11,1.07-0.17c0.72-0.06,1.43-0.14,2.17-0.05
			c-0.69,0.26-1.41,0.37-2.12,0.48c-0.36,0.03-0.72,0.07-1.08,0.07C58.71,71.16,58.35,71.17,57.98,71.07z"/>
	</g>
	<g>
		<path class="st0" d="M62.28,70.58c0.16,1.64,0.15,3.27,0.15,4.9c-0.05,1.63-0.08,3.27-0.28,4.9c-0.16-1.64-0.15-3.27-0.15-4.9
			C62.04,73.84,62.08,72.21,62.28,70.58z"/>
	</g>
	<g>
		<path class="st0" d="M57.26,81.11c0.74-0.38,1.58-0.44,2.38-0.46c0.81,0.03,1.6,0.08,2.4,0.2c-0.79,0.23-1.61,0.21-2.4,0.23
			C58.84,81.05,58.07,81.07,57.26,81.11z"/>
	</g>
	<g>
		<path class="st0" d="M58.47,80.82c-0.06-1.63-0.07-3.26-0.07-4.89c0-0.82-0.02-1.62,0.05-2.47c0.07-0.82,0.58-1.82,1.59-1.96
			c0.5-0.06,0.98,0.22,1.25,0.58c0.29,0.36,0.41,0.82,0.45,1.24c0.08,0.85-0.01,1.64-0.04,2.47c-0.08,1.63-0.17,3.26-0.31,4.89
			c-0.04-1.63-0.04-3.26-0.03-4.89c-0.02-0.81,0.07-1.64-0.02-2.42c-0.05-0.38-0.16-0.75-0.39-1.03c-0.22-0.28-0.55-0.45-0.87-0.41
			c-0.33,0.03-0.65,0.25-0.86,0.54c-0.22,0.28-0.33,0.66-0.38,1.04c-0.09,0.77-0.06,1.61-0.11,2.42
			C58.66,77.57,58.59,79.2,58.47,80.82z"/>
	</g>
	<g>
		<path class="st0" d="M58.63,73.58c0.2-0.16,0.41-0.13,0.61-0.09c0.18,0.09,0.37,0.19,0.43,0.44c-0.25,0.06-0.4,0-0.57-0.03
			C58.95,73.82,58.8,73.77,58.63,73.58z"/>
	</g>
	<g>
		<path class="st0" d="M58.99,72.83c0.26,0,0.42,0.14,0.59,0.27c0.13,0.16,0.28,0.32,0.28,0.58c-0.28-0.03-0.43-0.15-0.59-0.27
			C59.15,73.26,59.02,73.11,58.99,72.83z"/>
	</g>
	<g>
		<path class="st0" d="M59.76,72.01c0.17,0.27,0.2,0.52,0.24,0.77c0,0.26,0.03,0.51-0.1,0.8c-0.23-0.22-0.28-0.5-0.34-0.76
			C59.58,72.55,59.58,72.27,59.76,72.01z"/>
	</g>
	<g>
		<path class="st0" d="M60.27,72.2c0.21,0.16,0.23,0.37,0.23,0.57c-0.05,0.2-0.11,0.4-0.35,0.51c-0.1-0.24-0.07-0.39-0.08-0.56
			C60.11,72.56,60.13,72.41,60.27,72.2z"/>
	</g>
	<g>
		<path class="st0" d="M60.23,73.86c-0.03-0.25,0.09-0.42,0.19-0.59c0.14-0.14,0.28-0.29,0.53-0.32c0.01,0.27-0.09,0.43-0.19,0.59
			C60.62,73.67,60.5,73.81,60.23,73.86z"/>
	</g>
	<g>
		<path class="st0" d="M60.41,74.03c0.11-0.18,0.2-0.21,0.3-0.25c0.11,0,0.2-0.02,0.38,0.1c-0.03,0.21-0.16,0.27-0.29,0.33
			C60.67,74.2,60.53,74.21,60.41,74.03z"/>
	</g>
	<g>
		<path class="st0" d="M60.4,74.32l-0.14,0.9l-0.02,0.11l-0.07-0.1l-0.57-0.85l0.16-0.08c0.22,0.52,0.31,1.08,0.31,1.64
			c0.01,0.56-0.14,1.13-0.28,1.65c-0.16,0.52-0.15,1-0.12,1.57c0.02,0.54-0.06,1.25-0.64,1.64l-0.06-0.38
			c0.22,0.06,0.44,0.09,0.67,0.09c0.11,0,0.23,0,0.34-0.02c0.11-0.01,0.26-0.04,0.24-0.04c-0.01,0.02,0.04-0.06,0.03-0.19l0.01-0.35
			l0.01-0.7l0.4-0.05c0.04,0.3,0.15,0.58,0.31,0.84l-0.35,0.1c0.02-1.05,0.08-2.1,0.12-3.15l0.08-1.57c0.03-0.49-0.1-1.1-0.63-1.28
			c0.56,0.12,0.78,0.77,0.78,1.28c0.02,0.53,0.02,1.05,0.03,1.58c0,1.05,0.02,2.1,0,3.16L61,80.75l-0.34-0.54
			c-0.19-0.3-0.32-0.63-0.37-0.98l0.4-0.05v0.76v0.38c-0.01,0.11,0.01,0.3-0.19,0.48c-0.22,0.13-0.33,0.11-0.46,0.13
			c-0.13,0.02-0.26,0.02-0.39,0.02c-0.26-0.01-0.52-0.05-0.77-0.12l-0.45-0.13l0.4-0.25c0.37-0.23,0.49-0.77,0.47-1.28
			c-0.02-0.52-0.02-1.15,0.17-1.67c0.17-0.53,0.33-1.02,0.35-1.56c0.03-0.53-0.05-1.06-0.21-1.57l-0.25-0.82l0.41,0.74l0.5,0.9
			l-0.09,0.01L60.4,74.32z"/>
	</g>
	<g>
		<path class="st0" d="M57.61,85.16c-0.25-0.09-0.5,0.13-0.52,0.36c-0.02,0.24,0.2,0.43,0.42,0.46c0.48,0.07,0.82-0.5,0.71-0.92
			c-0.04-0.22-0.18-0.42-0.36-0.52c-0.18-0.09-0.4-0.06-0.57,0.08c-0.35,0.28-0.5,0.76-0.74,1.21c-0.46,0.9-1.05,1.71-1.66,2.49
			c-0.3,0.39-0.6,0.81-1.02,1.14c-0.42,0.32-0.98,0.54-1.56,0.4l0.24-0.28c0.09,0.22,0.3,0.31,0.6,0.38
			c0.32,0.07,0.56,0.11,0.87,0.09l1.88-0.02l3.75-0.09c1.25-0.01,2.5-0.04,3.75-0.07l1.88-0.04c0.32-0.03,0.64,0.09,0.89-0.12
			c0.25-0.17,0.47-0.41,0.72-0.59c-0.25,0.2-0.44,0.44-0.69,0.64c-0.25,0.25-0.63,0.14-0.92,0.19l-1.87,0.15
			c-1.25,0.08-2.5,0.15-3.75,0.21l-3.76,0.14l-1.84,0.02c-0.31,0.03-0.69-0.03-0.98-0.11c-0.3-0.05-0.74-0.23-0.89-0.63l-0.14-0.38
			l0.38,0.1c0.4,0.11,0.86-0.05,1.22-0.32c0.37-0.27,0.66-0.66,0.96-1.05c0.6-0.78,1.21-1.55,1.69-2.4
			c0.24-0.41,0.41-0.92,0.85-1.27c0.22-0.17,0.56-0.22,0.83-0.07c0.26,0.15,0.39,0.42,0.43,0.68c0.09,0.53-0.34,1.16-0.92,1.04
			c-0.25-0.05-0.5-0.29-0.45-0.56C57.09,85.26,57.37,85.05,57.61,85.16z"/>
	</g>
	<g>
		<path class="st0" d="M60.3,84.85c0.28,0.04,0.45,0.41,0.3,0.68c-0.15,0.28-0.53,0.36-0.82,0.23c-0.3-0.14-0.44-0.47-0.44-0.78
			c0-0.32,0.16-0.61,0.36-0.82c0.2-0.22,0.49-0.4,0.82-0.41c0.16-0.01,0.35,0.02,0.51,0.15c0.16,0.12,0.23,0.32,0.25,0.47
			c0.05,0.56,0.15,1.03,0.38,1.49c0.43,0.91,1.4,1.5,2.21,2.17c0.83,0.63,1.83,1.15,2.92,1c-1.07,0.34-2.22-0.13-3.11-0.73
			c-0.46-0.3-0.88-0.63-1.31-0.97c-0.42-0.34-0.84-0.76-1.1-1.28c-0.25-0.51-0.36-1.11-0.39-1.62c0-0.44-0.63-0.36-0.95-0.03
			c-0.18,0.16-0.31,0.37-0.33,0.6c-0.02,0.22,0.07,0.47,0.26,0.58c0.18,0.12,0.49,0.1,0.62-0.1C60.63,85.29,60.57,84.94,60.3,84.85z
			"/>
	</g>
	<g>
		<path class="st0" d="M60.81,84.17c0.34-0.13,0.74-0.08,1.08,0.09c0.35,0.18,0.57,0.55,0.71,0.87c0.28,0.65,0.61,1.24,1.08,1.75
			c0.45,0.51,0.98,0.97,1.59,1.28c0.59,0.35,1.26,0.56,1.96,0.66v0.1c-0.17-0.01-0.34-0.03-0.51-0.04c0.17-0.02,0.34-0.05,0.51-0.06
			v0.1c-1.46,0.08-2.91-0.66-3.86-1.77c-0.47-0.56-0.85-1.22-1.06-1.91C62.14,84.59,61.55,84.09,60.81,84.17z"/>
	</g>
	<g>
		<path class="st0" d="M57.55,84.42c0.31-0.18,0.61-0.19,0.92-0.22c0.14,0.02,0.31,0.01,0.52,0.09c0.23,0.13,0.22,0.37,0.18,0.52
			c-0.12-0.13-0.23-0.25-0.31-0.21c-0.07,0.03-0.09,0.01-0.16,0.01l-0.23,0.02C58.16,84.61,57.86,84.6,57.55,84.42z"/>
	</g>
	<g>
		<path class="st0" d="M58.55,88.29c0.06,0.25,0.25,0.43,0.44,0.59c0.18,0.17,0.38,0.21,0.59,0.15c0.4-0.11,0.62-0.61,0.58-1.03
			c-0.01-0.21-0.08-0.36-0.27-0.49s-0.41-0.21-0.62-0.23C58.84,87.17,58.68,87.82,58.55,88.29c-0.02-0.26-0.01-0.52,0.05-0.8
			c0.04-0.13,0.1-0.27,0.22-0.39c0.13-0.12,0.31-0.16,0.45-0.17c0.31-0.03,0.59,0.09,0.84,0.24c0.27,0.14,0.48,0.49,0.49,0.79
			c0.01,0.31-0.07,0.59-0.22,0.86c-0.15,0.25-0.41,0.49-0.73,0.53c-0.3,0.06-0.66-0.1-0.81-0.32
			C58.68,88.81,58.51,88.57,58.55,88.29z"/>
	</g>
	<g>
		<path class="st0" d="M59.14,85.1c0.12,0.53-0.08,1.14-0.53,1.53c-0.1,0.1-0.25,0.18-0.35,0.24c-0.11,0.07-0.15,0.1-0.21,0.21
			l-0.4,0.69c-0.32,0.43-0.67,0.85-1.02,1.26c-0.34,0.4-0.75,0.82-1.28,0.96c0.44-0.3,0.74-0.73,1.03-1.18
			c0.29-0.44,0.63-0.84,0.91-1.28l0.44-0.67c0.07-0.12,0.24-0.27,0.36-0.32c0.13-0.07,0.23-0.1,0.33-0.17
			C58.8,86.11,59.08,85.64,59.14,85.1z"/>
	</g>
	<g>
		<path class="st0" d="M65.3,89.99c0.18,2.64,0.2,5.28,0.23,7.93c-0.02,2.65-0.03,5.29-0.21,7.94c-0.18-2.64-0.2-5.29-0.23-7.93
			C65.11,95.28,65.12,92.64,65.3,89.99z"/>
	</g>
	<g>
		<path class="st0" d="M54.06,95.45c0.15,2.06,0.12,4.12,0.11,6.18c-0.03,1.03-0.05,2.06-0.1,3.09c-0.04,0.51-0.02,1.03-0.14,1.56
			c-0.12,0.51-0.35,1.02-0.74,1.37c0.66-0.85,0.57-1.9,0.54-2.93c-0.02-1.03,0-2.06,0-3.09C53.8,99.57,53.85,97.51,54.06,95.45z"/>
	</g>
	<g>
		<path class="st0" d="M55.79,95.45c0.13,1.8,0.17,3.59,0.18,5.39c0.01,1.8-0.03,3.59-0.11,5.39l-0.01,0.12l-0.11-0.01
			c-0.63-0.03-1.25-0.07-1.88-0.12c0.63-0.05,1.25-0.09,1.88-0.12l-0.12,0.12c-0.07-1.8-0.09-3.59-0.06-5.39
			C55.58,99.05,55.64,97.25,55.79,95.45z"/>
	</g>
	<g>
		<path class="st0" d="M55.63,106.49c0.32,0.45,0.6,0.91,0.88,1.38c0.03,0.05,0.1,0.13,0.08,0.3c-0.01,0,0.01,0.05,0.03,0.12
			c0.01,0.04,0.02,0.07,0.02,0.14c0,0.03,0.01,0.09-0.06,0.18c-0.04,0.05-0.09,0.06-0.13,0.07h-0.03l-0.21,0.02
			c-0.28,0.03-0.55,0.04-0.83,0.05c-0.55-0.02-1.09-0.05-1.63-0.09l-0.82-0.07c-0.19,0.01-0.32-0.23-0.28-0.38
			c0.03-0.16,0.14-0.26,0.24-0.36c-0.06,0.12-0.13,0.25-0.12,0.36c0.02,0.12,0.08,0.2,0.19,0.16l0.8-0.05
			c0.55-0.02,1.09,0.01,1.63-0.01c0.27,0.01,0.53,0.01,0.8,0l0.2-0.01c0,0,0.03,0,0.02,0c-0.03,0-0.06,0.02-0.09,0.05
			c-0.05,0.06-0.03,0.09-0.04,0.08c0,0,0-0.03-0.01-0.06c-0.01-0.06-0.05-0.15-0.02-0.28c0.01,0.03,0.01-0.02-0.03-0.08
			C56,107.52,55.8,107.02,55.63,106.49z"/>
	</g>
	<g>
		<path class="st0" d="M54.28,90.56c0.18,0.33,0.19,0.67,0.2,1c-0.03,0.33-0.06,0.65-0.2,0.99c-0.21-0.32-0.21-0.67-0.23-1
			C54.09,91.21,54.11,90.89,54.28,90.56z"/>
	</g>
	<g>
		<path class="st0" d="M55.92,90.33c0.18,0.35,0.19,0.69,0.22,1.04c-0.03,0.35-0.04,0.69-0.22,1.04c-0.18-0.35-0.19-0.69-0.22-1.04
			C55.73,91.02,55.75,90.67,55.92,90.33z"/>
	</g>
	<g>
		<path class="st0" d="M63.76,90.23c0.18,0.3,0.19,0.6,0.22,0.9c-0.03,0.29-0.04,0.59-0.22,0.88c-0.18-0.3-0.19-0.6-0.22-0.9
			C63.57,90.81,63.58,90.51,63.76,90.23z"/>
	</g>
	<g>
		<path class="st0" d="M54.28,92.55c1.87-0.26,3.74-0.35,5.61-0.46c1.88-0.06,3.75-0.12,5.64-0.02c-1.86,0.26-3.74,0.35-5.61,0.46
			C58.04,92.58,56.17,92.65,54.28,92.55z"/>
	</g>
	<g>
		<path class="st0" d="M56.74,108.29c-0.09-2.33-0.06-4.65-0.05-6.97l0.07-3.48c0.02-1.16,0.1-2.32,0.08-3.48
			c0.2,1.15,0.21,2.32,0.25,3.48c0.03,1.16,0.02,2.32,0.03,3.49C57.06,103.65,57.01,105.97,56.74,108.29z"/>
	</g>
	<g>
		<path class="st0" d="M56.82,94.26c1.01-0.23,2.02-0.29,3.04-0.37c1.01-0.03,2.03-0.07,3.05,0.06c-1,0.23-2.02,0.29-3.04,0.37
			C58.85,94.35,57.83,94.39,56.82,94.26z"/>
	</g>
	<g>
		<path class="st0" d="M62.95,94.26c0.13,2.37,0.21,4.74,0.21,7.11c0,1.19,0,2.37-0.04,3.56c-0.07,1.2-0.05,2.36-0.31,3.59
			l-0.03,0.13h-0.15c-1.96-0.05-3.93,0.04-5.89-0.18c1.97,0.01,3.92-0.16,5.89-0.19l-0.18,0.13c0.21-1.1,0.2-2.33,0.24-3.49
			l0.08-3.55C62.81,99.01,62.86,96.64,62.95,94.26z"/>
	</g>
	<g>
		<path class="st0" d="M65.32,105.86c0.1,0.25,0.26,0.43,0.41,0.66c0.07,0.12,0.12,0.26,0.14,0.41c0.03,0.14,0,0.31,0.02,0.38
			c0,0.03,0.05,0.08,0.07,0.12c0.03,0.04,0.05,0.09,0.1,0.18c0.06,0.15,0.08,0.29,0.1,0.43s0.02,0.28,0.02,0.41
			c0,0.07,0,0.13-0.02,0.23c0-0.01-0.01,0.07-0.05,0.12c-0.03,0.03-0.08,0.06-0.13,0.07c-0.08,0.02-0.06,0.01-0.09,0.01l-0.11,0.01
			c-1.05-0.03-2.07-0.08-3.11-0.21c1.03-0.23,2.08-0.2,3.1-0.22h0.09c0,0,0.06-0.01,0.01,0c-0.03,0.01-0.06,0.03-0.08,0.06
			c-0.04,0.04-0.04,0.09-0.04,0.07c0.01-0.03,0.01-0.1,0.02-0.16c0.01-0.12,0.01-0.24,0-0.36s-0.02-0.23-0.06-0.33
			c-0.02-0.08-0.14-0.23-0.15-0.4c0-0.19,0.05-0.28,0.04-0.39c0-0.12-0.02-0.23-0.06-0.34C65.46,106.38,65.32,106.12,65.32,105.86z"
			/>
	</g>
	<g>
		<path class="st0" d="M63.16,106.06c0.35-0.19,0.72-0.18,1.07-0.2c0.36,0.04,0.69,0.06,1.06,0.2c-0.34,0.22-0.72,0.22-1.07,0.24
			C63.86,106.25,63.52,106.22,63.16,106.06z"/>
	</g>
	<g>
		<path class="st0" d="M63.31,106.82c0.35-0.18,0.71-0.19,1.06-0.22c0.35,0.03,0.71,0.04,1.06,0.22c-0.35,0.18-0.71,0.19-1.06,0.22
			C64.02,107.01,63.66,107,63.31,106.82z"/>
	</g>
	<g>
		<path class="st0" d="M63.04,107.76c0.46-0.21,0.95-0.21,1.42-0.22c0.47,0.04,0.93,0.07,1.41,0.22c-0.46,0.21-0.95,0.21-1.42,0.22
			C63.97,107.93,63.52,107.91,63.04,107.76z"/>
	</g>
	<g>
		<path class="st0" d="M53.66,107.04c0.35-0.18,0.71-0.19,1.06-0.22c0.36,0.03,0.72,0.04,1.07,0.22c-0.36,0.18-0.71,0.19-1.06,0.22
			C54.38,107.23,54.02,107.22,53.66,107.04z"/>
	</g>
	<g>
		<path class="st0" d="M53.07,107.75c0.5-0.18,1-0.19,1.5-0.21c0.25,0.02,0.5,0.02,0.75,0.05l0.37,0.06
			c0.13,0.03,0.23,0.08,0.34,0.01c-0.04,0.15-0.24,0.17-0.34,0.2l-0.37,0.06c-0.25,0.03-0.5,0.03-0.75,0.05
			C54.07,107.95,53.57,107.93,53.07,107.75z"/>
	</g>
	<g>
		<path class="st0" d="M45.54,83.28c-0.12-0.48-0.16-0.98-0.2-1.47c-0.02-0.25-0.02-0.49-0.02-0.75v-0.05v-0.03v-0.01
			c0,0.01-0.01-0.03,0.04-0.11s0.16-0.09,0.18-0.08h0.01h0.02h0.04c0.05,0,0.11-0.01,0.16-0.02c0.11-0.02,0.23-0.04,0.34-0.06
			c0.24-0.04,0.47-0.09,0.71-0.15l0.03-0.01h0.02c0.02,0.01-0.05-0.03,0.14,0.02c0.09,0.04,0.12,0.15,0.11,0.18v0.02v0.01v0.02
			l-0.01,0.09l-0.02,0.18l-0.04,0.36c-0.05,0.48-0.08,0.98-0.22,1.46c-0.03-0.5-0.09-0.98-0.11-1.47c-0.01-0.12-0.01-0.25-0.01-0.37
			l0.01-0.19l0.01-0.1v-0.02v-0.01c0,0.01,0-0.02,0,0.01c-0.01,0.03,0.01,0.14,0.1,0.18c0.18,0.04,0.1,0.01,0.11,0.02h-0.01h-0.02
			c-0.23,0.06-0.47,0.13-0.72,0.19c-0.12,0.02-0.25,0.04-0.38,0.05c-0.07,0.01-0.13,0.01-0.2,0.01h-0.06h-0.03h-0.01
			c0.01,0.01,0.12,0,0.17-0.06c0.05-0.07,0.04-0.11,0.04-0.09v0.01v0.02v0.04c-0.02,0.23-0.02,0.48-0.05,0.72
			C45.64,82.3,45.61,82.79,45.54,83.28z"/>
	</g>
	<g>
		<path class="st0" d="M43.27,83.59c0.95-0.29,1.92-0.41,2.89-0.55c0.98-0.07,1.92-0.21,2.93-0.17c-0.93,0.31-1.91,0.48-2.88,0.6
			C45.23,83.56,44.26,83.66,43.27,83.59z"/>
	</g>
	<g>
		<path class="st0" d="M43.18,84.52c0.93-0.36,1.91-0.43,2.88-0.53c0.49-0.02,0.97-0.06,1.46-0.06c0.48-0.01,0.97,0.02,1.46-0.02
			c-0.45,0.22-0.95,0.27-1.43,0.35c-0.48,0.07-0.97,0.11-1.45,0.16C45.12,84.47,44.16,84.52,43.18,84.52z"/>
	</g>
	<g>
		<path class="st0" d="M74.59,80.53c-0.09-0.61-0.12-1.24-0.15-1.88c-0.01-0.16-0.01-0.32-0.01-0.48v-0.24v-0.12
			c0-0.01-0.03-0.04,0.09-0.12c0.09-0.04,0.07-0.03,0.1-0.04c0.33-0.08,0.62-0.12,0.93-0.16c0.31-0.03,0.6-0.06,0.93-0.06
			c0.03,0,0.02,0,0.09,0.01c0.04,0.01,0.08,0.02,0.12,0.05c0.04,0.03,0.08,0.12,0.08,0.14c0.01,0.05,0.01,0.1,0.01,0.14l0.01,0.24
			c0,0.15,0,0.31-0.01,0.46c-0.03,0.61-0.08,1.22-0.17,1.83c-0.09-0.61-0.13-1.22-0.16-1.82l-0.03-0.45l-0.01-0.22l-0.01-0.09
			c0,0,0.02,0.07,0.06,0.09c0.03,0.02,0.04,0.03,0.07,0.04c0.03,0-0.02,0-0.02,0c-0.28,0.02-0.59,0.06-0.89,0.1
			c-0.29,0.03-0.61,0.06-0.88,0.11c0,0-0.06,0.02,0-0.01c0.07-0.08,0.05-0.06,0.05-0.03v0.11v0.22c0,0.15-0.01,0.29-0.02,0.44
			C74.72,79.33,74.68,79.92,74.59,80.53z"/>
	</g>
	<g>
		<path class="st0" d="M71.58,80.91c1.27-0.28,2.55-0.39,3.83-0.51c1.29-0.07,2.57-0.16,3.88-0.08c-1.26,0.28-2.55,0.39-3.83,0.51
			C74.17,80.9,72.88,80.99,71.58,80.91z"/>
	</g>
	<g>
		<path class="st0" d="M71.73,81.69c1.25-0.25,2.51-0.34,3.77-0.43c1.26-0.05,2.52-0.11,3.8,0c-1.25,0.25-2.51,0.34-3.77,0.43
			C74.27,81.73,73,81.79,71.73,81.69z"/>
	</g>
	<g>
		<path class="st0" d="M86.01,80.82c-0.16-0.92-0.24-1.85-0.28-2.78l-0.01-0.26l0.26,0.05c0.33,0.07,0.66,0.12,1,0.25
			c0.05,0.02,0.08,0.03,0.15,0.07c0.04,0.01,0.13,0.11,0.13,0.17c0.01,0.06,0.01,0.06,0.01,0.09l0.01,0.26l0.01,0.51
			c-0.02,0.68-0.05,1.35-0.16,2.02c-0.11-0.67-0.16-1.34-0.21-2.01l-0.03-0.5l-0.02-0.22c0-0.01-0.01-0.05,0-0.03
			c0,0.02,0.06,0.08,0.06,0.08l-0.08-0.03l-0.96-0.25l0.25-0.2C86.15,78.96,86.12,79.89,86.01,80.82z"/>
	</g>
	<g>
		<path class="st0" d="M84.63,80.48c0.64,0.01,1.24,0.17,1.84,0.33c0.59,0.2,1.18,0.39,1.73,0.75c-0.65-0.01-1.24-0.17-1.84-0.33
			C85.77,81.02,85.18,80.83,84.63,80.48z"/>
	</g>
	<g>
		<path class="st0" d="M84.44,81.37c0.64-0.01,1.26,0.14,1.87,0.28c0.6,0.19,1.21,0.36,1.76,0.7c-0.66,0.01-1.26-0.14-1.87-0.28
			C85.61,81.89,85.01,81.71,84.44,81.37z"/>
	</g>
	<g>
		<path class="st0" d="M93.43,84.42l-0.12-4.09l-0.01-0.21l0.22,0.06c0.48,0.13,0.89,0.36,1.3,0.37l0,0l0.2,0.03l-0.01,0.19
			l-0.2,4.07v0.08l-0.07-0.02L93.43,84.42l1.35,0.35l-0.07,0.05l-0.12-4.06l0.19,0.22l0,0c-0.53-0.07-0.94-0.35-1.35-0.5l0.21-0.15
			L93.43,84.42z"/>
	</g>
	<g>
		<path class="st0" d="M96.3,85.16c-0.13-1.33-0.2-2.65-0.22-3.97v-0.25L96.33,81c0.27,0.06,0.54,0.15,0.78,0.22l0.19,0.05
			l0.09,0.02l0.02,0.01c0.03,0.02,0.09,0.05,0.12,0.1c0.04,0.05,0.05,0.12,0.05,0.14v0.03c0.01,0.15,0.01,0.28,0.01,0.41v1.61
			c-0.01,0.54-0.04,1.07-0.07,1.61l-0.01,0.2l-0.01,0.1l-0.01,0.05c0,0.02-0.02,0.09-0.04,0.12c-0.15,0.06-0.12,0.01-0.17,0.02
			l-0.1-0.02l-0.2-0.06c-0.26-0.08-0.52-0.17-0.74-0.33c0.25,0.1,0.51,0.15,0.77,0.19l0.2,0.02l0.1,0.01
			c0.01,0.01,0.12-0.01,0.02,0.02c-0.02,0-0.03,0.03-0.03,0.02v-0.05v-0.1l-0.01-0.2l-0.07-1.6l-0.05-1.6l-0.02-0.39v-0.02
			c0,0.01,0.01,0.06,0.04,0.09c0.03,0.04,0.08,0.05,0.11,0.05l-0.02-0.01l-0.1-0.03l-0.2-0.06c-0.27-0.09-0.5-0.18-0.75-0.24
			l0.25-0.2C96.47,82.5,96.41,83.83,96.3,85.16z"/>
	</g>
	<g>
		<path class="st0" d="M90.49,78.86c-0.14-0.97-0.22-1.94-0.25-2.91l-0.01-0.22l0.23,0.03l0.58,0.07c0.1,0.02,0.18,0.02,0.31,0.06
			c-0.01,0,0.09,0.03,0.12,0.08c0.03,0.04,0.06,0.12,0.06,0.15l0.01,0.08l0.01,0.15v1.16c-0.01,0.38-0.04,0.77-0.07,1.15l-0.01,0.15
			c-0.02,0.06,0.02,0.07-0.06,0.21c-0.19,0.07-0.24,0.01-0.35,0.01C90.86,78.99,90.66,78.94,90.49,78.86
			c0.19,0.03,0.38,0.03,0.57,0.03c0.08,0,0.23-0.02,0.22-0.02c-0.05,0.06-0.02-0.04-0.03-0.07l-0.01-0.14l-0.06-1.15l-0.05-1.14
			l-0.01-0.14l-0.01-0.06c0,0.01,0.02,0.06,0.05,0.08c0.03,0.03,0.09,0.06,0.07,0.04c-0.06-0.02-0.16-0.04-0.25-0.05l-0.56-0.1
			l0.23-0.19C90.65,76.92,90.59,77.89,90.49,78.86z"/>
	</g>
	<g>
		<path class="st0" d="M98.64,80.48c0.24,1.82,0.31,3.65,0.4,5.47c0.04,1.83,0.08,3.65-0.04,5.48c-0.24-1.82-0.31-3.65-0.4-5.47
			C98.57,84.14,98.52,82.31,98.64,80.48z"/>
	</g>
	<g>
		<path class="st0" d="M99,91.44c0.54-0.08,1.04,0,1.55,0.07c0.5,0.12,1,0.22,1.47,0.5c-0.54,0.08-1.04,0-1.55-0.07
			C99.97,91.81,99.47,91.71,99,91.44z"/>
	</g>
	<g>
		<path class="st0" d="M98.61,80.28c0.54,0.03,1.04,0.23,1.54,0.41c0.48,0.23,0.97,0.44,1.39,0.81c-0.56-0.04-1.05-0.23-1.54-0.41
			C99.53,80.86,99.05,80.65,98.61,80.28z"/>
	</g>
	<g>
		<path class="st0" d="M101.54,81.5c0.26,1.74,0.35,3.49,0.45,5.24c0.05,1.75,0.12,3.5,0.02,5.26c-0.26-1.74-0.35-3.49-0.45-5.24
			C101.51,85.01,101.44,83.25,101.54,81.5z"/>
	</g>
	<g>
		<path class="st0" d="M105.63,83.27c0.21,1.58,0.26,3.17,0.32,4.76c0.01,1.59,0.03,3.18-0.12,4.77c-0.21-1.59-0.26-3.18-0.32-4.76
			C105.51,86.45,105.48,84.86,105.63,83.27z"/>
	</g>
	<g>
		<path class="st0" d="M105.83,92.81c0.39-0.08,0.74-0.04,1.1-0.01c0.35,0.08,0.72,0.14,1.04,0.4c-0.39,0.1-0.74,0.06-1.11,0.03
			C106.51,93.15,106.14,93.08,105.83,92.81z"/>
	</g>
	<g>
		<path class="st0" d="M105.66,83.06c0.36-0.08,0.67,0.04,0.96,0.14c0.28,0.15,0.55,0.27,0.8,0.53c-0.35,0.09-0.67-0.03-0.97-0.13
			C106.17,83.45,105.91,83.33,105.66,83.06z"/>
	</g>
	<g>
		<path class="st0" d="M107.58,83.88c0.24,1.55,0.32,3.1,0.41,4.65c0.04,1.55,0.09,3.11-0.02,4.67c-0.25-1.55-0.32-3.1-0.41-4.65
			C107.52,86.99,107.47,85.44,107.58,83.88z"/>
	</g>
	<g>
		<path class="st0" d="M68.36,71.32c0.08,2.86,0.14,5.72,0.18,8.59l0.06,8.59l-0.04,8.59c-0.03,2.86-0.08,5.73-0.16,8.59
			c-0.08-2.86-0.14-5.73-0.18-8.59l-0.06-8.59l0.04-8.59C68.23,77.05,68.29,74.18,68.36,71.32z"/>
	</g>
	<g>
		<path class="st0" d="M71.54,71.33c0.24,2.84,0.29,5.69,0.37,8.53c0.07,2.85,0.09,5.69,0.13,8.54l-0.02,8.54
			c-0.04,2.85-0.06,5.69-0.22,8.54c0.02-1.42-0.02-2.85-0.05-4.27l-0.06-4.27l-0.08-8.54l-0.03-8.54v-4.27
			C71.57,74.17,71.6,72.75,71.54,71.33z"/>
	</g>
	<g>
		<path class="st0" d="M49.47,74.03c0.1,2.6,0.08,5.21,0.04,7.81s-0.14,5.21-0.22,7.81c-0.12,2.6-0.23,5.2-0.38,7.8
			c-0.15,2.6-0.32,5.2-0.56,7.79l0.22-7.81l0.28-7.8l0.32-7.8C49.28,79.23,49.41,76.63,49.47,74.03z"/>
	</g>
	<g>
		<path class="st0" d="M51.98,73.64c0.17,2.64,0.15,5.28,0.13,7.92s-0.09,5.28-0.15,7.92c-0.1,2.64-0.18,5.27-0.33,7.91
			c-0.17,2.63-0.25,5.28-0.68,7.89c0.18-1.31,0.18-2.63,0.22-3.95l0.12-3.95l0.23-7.91l0.25-7.91l0.12-3.95
			C51.95,76.28,52.01,74.96,51.98,73.64z"/>
	</g>
	<g>
		<path class="st0" d="M43.38,74.78c0.03,2.56,0.01,5.12-0.05,7.68c-0.05,2.56-0.15,5.12-0.23,7.68c-0.12,2.56-0.22,5.12-0.37,7.67
			c-0.15,2.56-0.31,5.11-0.58,7.66l0.52-15.36L43,82.44L43.38,74.78z"/>
	</g>
	<g>
		<path class="st0" d="M41.27,75.1c-0.07,2.52-0.15,5.04-0.27,7.56l-0.38,7.56l-0.48,7.55c-0.17,2.51-0.38,5.02-0.6,7.53
			c0.07-2.53,0.15-5.05,0.27-7.57l0.39-7.55l0.49-7.54C40.84,80.12,41.04,77.61,41.27,75.1z"/>
	</g>
	<g>
		<path class="st0" d="M88.1,71.74c0.19,2.79,0.36,5.59,0.5,8.38l0.38,8.39l0.28,8.39c0.08,2.8,0.14,5.59,0.17,8.39
			c-0.19-2.79-0.36-5.59-0.5-8.38l-0.38-8.39l-0.28-8.39C88.19,77.34,88.13,74.54,88.1,71.74z"/>
	</g>
	<g>
		<path class="st0" d="M89.79,72.15c0.05,1.39,0.15,2.78,0.24,4.16l0.24,4.16l0.42,8.33l0.33,8.33c0.08,2.78,0.18,5.56,0.15,8.34
			l-0.49-8.32l-0.43-8.33l-0.32-8.33C89.85,77.71,89.76,74.94,89.79,72.15z"/>
	</g>
	<g>
		<path class="st0" d="M109.57,86.22c0.26,3.53,0.36,7.06,0.47,10.59c0.06,3.53,0.13,7.06,0.04,10.59
			c-0.26-3.53-0.36-7.06-0.47-10.59C109.55,93.28,109.48,89.75,109.57,86.22z"/>
	</g>
	<g>
		<path class="st0" d="M109.18,85.54c-0.12-0.39,0.06-0.83,0.25-1.17c0.19-0.35,0.41-0.67,0.63-1c0.43-0.66,0.9-1.29,1.4-1.9
			l0.13-0.16l0.1,0.15c0.23,0.35,0.44,0.71,0.63,1.08c-0.31-0.29-0.59-0.58-0.85-0.89l0.23-0.01c-0.4,0.67-0.83,1.33-1.3,1.95
			c-0.23,0.32-0.47,0.63-0.72,0.93C109.44,84.83,109.2,85.13,109.18,85.54z"/>
	</g>
	<g>
		<path class="st0" d="M112.2,82.66c1.02-0.34,2.07-0.54,3.13-0.69c1.06-0.1,2.17-0.13,3.21,0.18c-1.07,0.05-2.11,0.1-3.16,0.25
			C114.33,82.49,113.28,82.67,112.2,82.66z"/>
	</g>
	<g>
		<path class="st0" d="M109.39,85.87c2.12-0.32,4.25-0.59,6.39-0.77c1.07-0.1,2.14-0.16,3.22-0.2c0.54-0.02,1.08-0.03,1.62-0.01
			c0.55,0.04,1.07,0,1.65,0.25l0.23,0.1l-0.25,0.1c-0.21,0.08-0.39,0.04-0.54,0.08c-0.15,0.02-0.21,0.13-0.22,0.31l-0.16,1.03
			l0.03-1.04c0-0.08,0-0.18,0.05-0.28s0.16-0.17,0.25-0.19c0.19-0.05,0.37-0.05,0.48-0.11l-0.01,0.2c-0.43-0.14-1.01-0.11-1.53-0.11
			L119,85.3l-3.2,0.22C113.68,85.66,111.54,85.84,109.39,85.87z"/>
	</g>
	<g>
		<path class="st0" d="M117.84,85.4c0.41,0.24,0.61,0.72,0.71,1.17c0.1,0.46,0.14,0.92,0.18,1.38l0.23,2.76l0.39,5.53
			c0.2,3.69,0.41,7.39,0.46,11.09c-0.4-3.68-0.64-7.37-0.89-11.06l-0.29-5.54l-0.11-2.77c-0.01-0.46-0.01-0.93-0.08-1.38
			C118.37,86.15,118.22,85.69,117.84,85.4z"/>
	</g>
	<g>
		<path class="st0" d="M121.31,87.2c0.35,3.34,0.53,6.68,0.72,10.02c0.14,3.34,0.3,6.68,0.29,10.03c-0.35-3.33-0.53-6.67-0.72-10.02
			C121.45,93.89,121.3,90.54,121.31,87.2z"/>
	</g>
	<g>
		<path class="st0" d="M114.04,78.98c-0.09-0.18-0.09-0.42,0.03-0.61c0.15-0.16,0-0.27-0.16-0.35c-0.09-0.04-0.2-0.08-0.29-0.19
			c-0.09-0.11-0.1-0.31-0.05-0.4c0.06-0.2,0.07-0.35,0.04-0.54c-0.07-0.36-0.25-0.72-0.38-1.12c-0.06-0.2-0.12-0.43-0.11-0.67
			c0-0.24,0.11-0.49,0.12-0.6c0.02-0.1-0.06-0.17-0.15-0.18c-0.07-0.02-0.17,0.09-0.16,0.17c0.02,0.06,0.07,0.15,0.1,0.22
			c0.04,0.09,0.09,0.22,0.1,0.33c0.04,0.24,0.01,0.46-0.05,0.67c-0.09,0.39-0.27,0.78-0.3,1.14c0,0.09,0.01,0.17,0.06,0.24
			c0.03,0.07,0.15,0.08,0.21,0.24c-0.01,0.32-0.4,0.27-0.3,0.51c-0.14-0.22,0.26-0.36,0.19-0.48c-0.01-0.04-0.14-0.07-0.23-0.17
			c-0.09-0.09-0.12-0.21-0.14-0.33c-0.01-0.45,0.14-0.82,0.19-1.23c0.03-0.19,0.03-0.37,0-0.54c-0.02-0.09-0.04-0.15-0.09-0.24
			c-0.05-0.11-0.1-0.2-0.14-0.34c-0.03-0.32,0.22-0.63,0.57-0.63c0.32,0,0.61,0.32,0.56,0.63c-0.05,0.29-0.13,0.42-0.14,0.59
			s0.02,0.35,0.07,0.53c0.1,0.37,0.3,0.74,0.34,1.2c0.03,0.22-0.02,0.48-0.1,0.66c-0.07,0.15-0.02,0.22,0.19,0.33
			c0.09,0.06,0.19,0.14,0.25,0.26c0.03,0.06,0.04,0.14,0.01,0.2s-0.07,0.1-0.1,0.14C114.05,78.58,113.99,78.78,114.04,78.98z"/>
	</g>
	<g>
		<path class="st0" d="M117.43,81.99c-0.04-0.45-0.04-0.9-0.03-1.34c0.01-0.12-0.01-0.21-0.02-0.3c0-0.1,0-0.17-0.06-0.27
			c-0.04-0.1-0.12-0.24-0.09-0.43c0.02-0.09,0.05-0.18,0.13-0.26c0.08-0.08,0.22-0.14,0.35-0.11c0.25,0.06,0.34,0.3,0.33,0.42
			c0.01,0.12,0,0.28,0.02,0.37c0.03,0.2,0.06,0.4,0.1,0.62c0.07,0.44,0.14,0.88,0.16,1.34c-0.2-0.41-0.34-0.83-0.49-1.26
			c-0.08-0.2-0.12-0.44-0.17-0.68c-0.03-0.22-0.05-0.44-0.05-0.38c0.05,0,0.05-0.04,0.02,0.02c-0.01,0.03,0,0.1,0.05,0.21
			c0.05,0.1,0.08,0.26,0.07,0.38c0.01,0.13,0,0.26-0.03,0.37C117.65,81.11,117.56,81.55,117.43,81.99z"/>
	</g>
	<g>
		<path class="st0" d="M118.71,82.02c-0.12-0.67,0.02-1.36,0.1-2c0.01-0.31,0.16-0.72-0.01-0.77c-0.16-0.16-0.26-0.39-0.21-0.64
			c0.05-0.24,0.24-0.46,0.53-0.49c0.28-0.01,0.55,0.18,0.57,0.49c0,0.28-0.14,0.42-0.14,0.53c-0.02,0.25,0.03,0.6,0.06,0.92
			c0.07,0.65,0.19,1.3,0.31,1.97c-0.29-0.61-0.49-1.25-0.63-1.91c-0.08-0.33-0.14-0.64-0.12-1.06c0.04-0.21,0.14-0.36,0.12-0.42
			c0-0.04-0.07-0.09-0.13-0.09c-0.14-0.01-0.24,0.25-0.07,0.42c0.02,0.02,0.05,0.05,0.1,0.1c0.05,0.05,0.08,0.14,0.08,0.2
			c0.02,0.16-0.01,0.22-0.02,0.31c-0.02,0.17-0.06,0.34-0.1,0.5C118.98,80.73,118.77,81.35,118.71,82.02z"/>
	</g>
	<g>
		<path class="st0" d="M119.15,84.99c-0.06-0.28-0.09-0.56-0.14-0.85c-0.02-0.14-0.05-0.28-0.06-0.43c-0.01-0.14-0.02-0.35,0.15-0.5
			l0.03,0.23c-0.29-0.12-0.4-0.5-0.25-0.76c0.05-0.1,0.05-0.04,0.01-0.16c-0.04-0.1-0.08-0.22-0.11-0.33
			c-0.05-0.23-0.08-0.46-0.06-0.71c0.01-0.22,0.14-0.61,0.52-0.67c0.35-0.04,0.59,0.17,0.74,0.38c0.15,0.22,0.22,0.47,0.22,0.73
			c0,0.13-0.03,0.26-0.07,0.38l-0.05,0.13c-0.02,0.03-0.03,0.06,0,0.08c0.04,0.12,0.12,0.43,0.16,0.63L120.11,83
			c0.08,0.03,0.16,0.07,0.23,0.11l0.14,0.08l-0.11,0.13c-0.1,0.12-0.25,0.16-0.39,0.13l0.15-0.19c0.24,0.54,0.23,1.17-0.01,1.68
			c0.11-0.55,0.01-1.11-0.24-1.56l-0.12-0.22l0.27,0.03c0.04,0,0.09-0.02,0.11-0.05l0.02,0.21c-0.04-0.01-0.06-0.01-0.09-0.03
			l-0.11-0.07l-0.03-0.07c-0.08-0.21-0.12-0.31-0.21-0.61c-0.08-0.14,0.05-0.34,0.06-0.41c0.03-0.08,0.04-0.17,0.04-0.26
			c0.02-0.34-0.29-0.71-0.5-0.69c-0.18-0.02-0.24,0.52-0.15,0.87c0.02,0.1,0.05,0.19,0.08,0.29c0.02,0.05,0.05,0.12,0.04,0.23
			c-0.01,0.13-0.06,0.15-0.09,0.22c-0.09,0.1-0.05,0.28,0.06,0.35l0.21,0.13l-0.18,0.1c-0.13,0.08-0.08,0.44-0.1,0.71
			C119.17,84.41,119.17,84.7,119.15,84.99z"/>
	</g>
	<g>
		<path class="st0" d="M121.52,81.17c-0.06-0.89-0.1-1.78-0.12-2.67c-0.02-0.43-0.01-0.92-0.05-1.31c-0.03-0.2-0.1-0.37-0.22-0.43
			c-0.04-0.04-0.27-0.05-0.35-0.28c-0.06-0.2-0.01-0.33,0.03-0.45l0.06-0.2l0.18,0.08l0.45,0.19l-0.3,0.23l-0.09-0.51l-0.03-0.19
			l0.2-0.01c0.13-0.01,0.34-0.1,0.56,0.16c0.05,0.11,0.05,0.17,0.07,0.25c0.01,0.01,0.01,0.02,0.03,0.03
			c0.04,0.03,0.15,0.07,0.27,0.11c0.12,0.05,0.28,0.1,0.41,0.26l0.1,0.12l-0.09,0.13c-0.2,0.28-0.56,0.36-0.85,0.18l0.31-0.16
			l0.04,1.48c0.02,0.24-0.01,0.52,0.04,0.71c0.02,0.1,0.07,0.17,0.11,0.19c0.02,0.02,0.11,0.02,0.21,0.09
			c0.1,0.09,0.12,0.19,0.13,0.25c0.08,0.5,0.18,0.98,0.24,1.5c0.04,0.17-0.15,0.34-0.28,0.34c-0.13,0.03-0.27,0.04-0.4,0.02
			c-0.26-0.04-0.5-0.18-0.64-0.39c0.17,0.18,0.42,0.28,0.65,0.29c0.21,0.01,0.55-0.07,0.48-0.25l-0.35-1.45
			c-0.06-0.12,0.03-0.04-0.17-0.11c-0.19-0.07-0.29-0.25-0.33-0.39c-0.09-0.29-0.06-0.52-0.08-0.78l-0.07-1.53l-0.02-0.4l0.33,0.24
			c0.08,0.05,0.24,0.01,0.28-0.07l0.01,0.25c-0.03-0.04-0.11-0.08-0.22-0.11c-0.11-0.04-0.24-0.07-0.4-0.19
			c-0.08-0.06-0.15-0.17-0.17-0.28c-0.01-0.04-0.01-0.11-0.01-0.11c0.06,0.04-0.03-0.01-0.12,0.02l0.17-0.2l0.06,0.39l0.06,0.38
			l-0.36-0.15c-0.11-0.05-0.22-0.09-0.32-0.15l0.23-0.13c-0.03,0.09-0.04,0.18-0.04,0.2c-0.02,0,0.04,0.01,0.18,0.08
			c0.28,0.17,0.36,0.48,0.39,0.71c0.03,0.49-0.02,0.9-0.03,1.36C121.64,79.39,121.59,80.28,121.52,81.17z"/>
	</g>
	<g>
		<path class="st0" d="M120.24,81.89c0-0.33,0.21-0.55,0.36-0.76c0.2-0.18,0.35-0.34,0.61-0.51c0.06,0.33-0.13,0.59-0.29,0.8
			C120.72,81.62,120.54,81.77,120.24,81.89z"/>
	</g>
	<g>
		<path class="st0" d="M120.32,83.82c0.34,0.09,0.69,0.03,0.95-0.15c0.13-0.08,0.22-0.24,0.31-0.37c0.1-0.13,0.19-0.27,0.26-0.43
			c0.32-0.62,0.68-1.2,1.02-1.8l0.19-0.34l0.18,0.35c0.38,0.76,0.72,1.55,1.07,2.32c0.33,0.79,0.66,1.57,0.94,2.38
			c-0.46-0.73-0.86-1.48-1.26-2.23c-0.38-0.76-0.77-1.51-1.12-2.29l0.37,0.01c-0.38,0.59-0.73,1.19-1.13,1.77
			c-0.09,0.15-0.2,0.29-0.33,0.42c-0.13,0.13-0.23,0.29-0.41,0.37C121.03,83.99,120.63,83.99,120.32,83.82z"/>
	</g>
	<g>
		<path class="st0" d="M123.84,82.29c0.03-0.19,0.07-0.38,0-0.52c-0.03-0.08-0.07-0.16-0.1-0.27c-0.03-0.11-0.04-0.29,0.11-0.41
			c0.15-0.11,0.33-0.1,0.48,0.01c0.17,0.12,0.16,0.37,0.11,0.47c-0.1,0.26-0.11,0.23-0.04,0.39c0.16,0.35,0.24,0.77,0.26,1.14
			c0.02,0.38,0.03,0.73,0.13,1.11c-0.26-0.29-0.37-0.69-0.46-1.06c-0.09-0.37-0.14-0.7-0.33-1.03c-0.04-0.1-0.08-0.24-0.05-0.39
			s0.1-0.23,0.12-0.29c0.02-0.07,0.01-0.04,0.02-0.05c0-0.01-0.05-0.02-0.05-0.03c-0.05-0.03-0.04,0.16,0.01,0.37
			C124.06,81.96,123.96,82.14,123.84,82.29z"/>
	</g>
	<g>
		<path class="st0" d="M111.93,82.69c-0.21,0.62-0.56,1.16-0.91,1.7c-0.38,0.51-0.76,1.04-1.26,1.46c0.22-0.63,0.57-1.16,0.91-1.7
			C111.05,83.63,111.42,83.12,111.93,82.69z"/>
	</g>
	<g>
		<path class="st0" d="M122.83,88.61c-0.04,0.82,0.09,1.66,0.37,2.42c0.07,0.19,0.15,0.37,0.26,0.53c0.09,0.15,0.26,0.36,0.32,0.38
			c-0.04,0.01,0.1-0.1,0.11-0.28c0.04-0.2,0.08-0.39,0.11-0.59c0.12-0.79,0.12-1.59-0.09-2.38c-0.11-0.38-0.19-0.84-0.56-1.01
			c-0.19-0.06-0.37,0.13-0.43,0.32C122.86,88.19,122.85,88.4,122.83,88.61z M122.83,88.61c0.01-0.21,0.02-0.42,0.08-0.61
			c0.05-0.19,0.21-0.42,0.46-0.37c0.44,0.16,0.58,0.64,0.75,1c0.33,0.78,0.45,1.67,0.31,2.52c-0.03,0.21-0.08,0.42-0.13,0.62
			c-0.03,0.12-0.08,0.24-0.16,0.35c-0.09,0.11-0.25,0.25-0.49,0.17c-0.3-0.2-0.32-0.39-0.44-0.58c-0.09-0.19-0.16-0.41-0.21-0.61
			C122.81,90.27,122.79,89.43,122.83,88.61z"/>
	</g>
	<g>
		<path class="st0" d="M125.13,85.86c0.34,3.48,0.51,6.99,0.7,10.48c0.14,3.5,0.29,7,0.27,10.5c-0.34-3.5-0.51-6.99-0.7-10.48
			C125.26,92.87,125.12,89.37,125.13,85.86z"/>
	</g>
	<g>
		<path class="st0" d="M125.31,87.12c0.1-0.11,0.27-0.06,0.4-0.05c0.14,0.02,0.28,0.05,0.42,0.09c0.27,0.08,0.54,0.16,0.8,0.31
			l0.33,0.19l-0.38-0.07c-0.28-0.05-0.58,0.1-0.71,0.34s-0.09,0.56,0.09,0.75l0.04,0.04l-0.01,0.06c-0.24,1.48,0.01,2.99,0.07,4.5
			c0.09,1.51,0.19,3.03,0.25,4.54c0.15,3.03,0.26,6.06,0.28,9.1c-0.3-3.02-0.52-6.04-0.69-9.07c-0.1-1.51-0.17-3.03-0.24-4.54
			c-0.05-1.5-0.24-3.05,0.08-4.57l0.03,0.11c-0.24-0.29-0.27-0.71-0.08-1.01c0.2-0.31,0.58-0.45,0.91-0.37l-0.05,0.12
			c-0.22-0.15-0.48-0.26-0.74-0.35c-0.13-0.05-0.26-0.09-0.4-0.12C125.58,87.09,125.42,87.02,125.31,87.12z"/>
	</g>
	<g>
		<path class="st0" d="M118.59,87.57c0.44-0.15,0.86-0.21,1.3-0.27c0.44-0.01,0.89-0.04,1.34,0.11c-0.43,0.21-0.86,0.25-1.3,0.32
			C119.49,87.74,119.02,87.77,118.59,87.57z"/>
	</g>
	<g>
		<path class="st0" d="M113.78,101.48l-0.19-3.39l-0.07-1.7c-0.03-0.57-0.05-1.13-0.19-1.65l-0.07-0.25l0.26,0.02
			c1.5,0.11,3.02,0.03,4.5-0.25l0.24-0.04l0.01,0.23l0.23,3.8c0.08,1.27,0.15,2.53,0.2,3.8l0.01,0.2l-0.19-0.06
			c-0.75-0.23-1.57-0.19-2.39-0.2l-2.44-0.03l2.44-0.15c0.81-0.05,1.64-0.11,2.47,0.1l-0.18,0.15c-0.11-1.26-0.21-2.52-0.3-3.79
			l-0.27-3.79l0.25,0.19c-1.52,0.26-3.07,0.33-4.61,0.19l0.19-0.23c0.13,0.58,0.13,1.16,0.13,1.73v1.7L113.78,101.48z"/>
	</g>
	<g>
		<path class="st0" d="M115.24,95.61c0.31,1.69,0.43,3.42,0.38,5.14l-0.22-0.2c0.76-0.12,1.54-0.16,2.31-0.12l-0.23,0.21
			c0.02-1.31,0.05-2.62,0.09-3.92l0.04-0.98l0.01-0.24c-0.01-0.08,0.02-0.04-0.01-0.06l-0.47-0.02c-0.65-0.03-1.31-0.05-1.96-0.1
			c0.65-0.05,1.31-0.08,1.96-0.12c0.17,0,0.31-0.02,0.51-0.01c0.06,0,0.15,0.04,0.19,0.12c0.04,0.07,0.04,0.13,0.04,0.18v0.25
			l0.02,0.98c0.01,1.31,0.01,2.62,0,3.92v0.23l-0.23-0.02c-0.74-0.06-1.49-0.04-2.22,0.07l-0.23,0.03l0.01-0.23
			C115.33,99.03,115.32,97.32,115.24,95.61z"/>
	</g>
	<g>
		<path class="st0" d="M114.69,81.95c-0.07-0.23-0.13-0.46-0.14-0.7s0.06-0.49,0.23-0.68c0.18-0.19,0.43-0.24,0.66-0.29
			s0.48-0.09,0.73-0.07l-0.05,0.1c-0.21-0.24-0.48-0.42-0.78-0.51c-0.3-0.1-0.63-0.14-0.95-0.2h-0.02l-0.02-0.01
			c-2.6-1.52-5.3-2.87-7.97-4.27l-8.05-4.14c-5.36-2.77-10.75-5.49-16.03-8.42l8.13,4c2.71,1.32,5.4,2.7,8.1,4.06
			c2.7,1.35,5.37,2.77,8.04,4.17c2.67,1.41,5.32,2.85,7.9,4.44l-0.03-0.01c0.32,0.07,0.64,0.13,0.96,0.25
			c0.32,0.11,0.61,0.32,0.82,0.58l0.09,0.11l-0.14-0.02c-0.23-0.03-0.46,0-0.7,0.04c-0.23,0.04-0.47,0.08-0.64,0.24
			c-0.17,0.16-0.24,0.4-0.24,0.64C114.58,81.48,114.63,81.72,114.69,81.95z"/>
	</g>
	<g>
		<path class="st0" d="M97.16,69.31c-0.05-0.37-0.08-0.73-0.12-1.1c0-0.11-0.02-0.14-0.01-0.31c-0.01-0.06,0.11-0.14,0.14-0.13
			l0.08-0.01l0.14-0.02l0.55-0.07l-0.12,0.06c0-0.01-0.04-0.13-0.23-0.12h-0.32c-0.07,0-0.07,0.01-0.21-0.01
			c-0.26-0.09-0.18-0.34-0.2-0.34v-0.33c0-0.09-0.02-0.01,0.07,0.04c0.03,0.01-0.08-0.02-0.1-0.02c-0.09-0.01-0.11,0.01-0.11,0.01
			c0.01-0.03,0-0.04,0.03,0.16c0.04,0.09-0.09,0.32-0.19,0.32c-0.13,0.06-0.15,0.05-0.21,0.06l-0.32,0.07l-0.32,0.07
			c-0.06,0.01-0.09,0.03-0.06,0.01c0.03-0.03,0.01-0.05,0.02-0.02c0.01,0.05,0.06,0.19,0.1,0.28c0.02,0.01,0,0.03-0.01,0.03
			c0,0.01,0.08,0,0.13,0l0.64-0.04l0.19-0.01l-0.05,0.15c-0.13,0.37-0.18,0.77-0.18,1.18c-0.11-0.39-0.11-0.82-0.04-1.23l0.13,0.14
			l-0.68,0.11c-0.06,0.01-0.1,0.03-0.2,0.01c-0.14-0.02-0.18-0.13-0.23-0.2c-0.05-0.11-0.1-0.17-0.15-0.33
			c-0.02-0.07-0.03-0.22,0.08-0.33c0.11-0.1,0.2-0.1,0.24-0.11l0.32-0.08l0.32-0.08c0.05-0.01,0.13-0.04,0.11-0.03
			c0.02-0.02-0.05,0.09-0.03,0.07L96.33,67c-0.02-0.08,0.01-0.25,0.09-0.32c0.15-0.17,0.38-0.18,0.5-0.15
			c0.08,0.02,0.09,0.01,0.22,0.06c0.21,0.1,0.15,0.33,0.16,0.34l-0.01,0.33c-0.01,0.1,0.03,0.01-0.1-0.05c-0.03,0,0.08,0,0.12,0
			l0.34,0.02c0.13,0.01,0.28,0.04,0.42,0.18c0.11,0.12,0.19,0.34,0.04,0.53L98.06,68h-0.07l-0.55,0.01H97.3h-0.06
			c-0.01,0.01,0.05-0.04,0.05-0.05l-0.01,0.24C97.22,68.57,97.21,68.94,97.16,69.31z"/>
	</g>
	<g>
		<path class="st0" d="M87.82,71.4c0.34-0.16,0.7-0.1,1.04-0.02c0.32,0.13,0.64,0.29,0.83,0.62c-0.37-0.02-0.65-0.14-0.96-0.21
			C88.43,71.67,88.13,71.6,87.82,71.4z"/>
	</g>
	<g>
		<path class="st0" d="M88,71.27c-0.02-0.18,0.02-0.36,0.03-0.53s-0.02-0.33-0.07-0.49c-0.09-0.32-0.26-0.62-0.44-0.92l-0.1-0.17
			l0.2-0.07c0.58-0.21,1.16-0.04,1.67,0.09c0.52,0.14,1.02,0.35,1.51,0.59l0.25,0.12l-0.18,0.18c-0.26,0.25-0.53,0.23-0.66,0.31
			c-0.06,0.04-0.08,0.05-0.09,0.15c0,0.08,0.01,0.3-0.15,0.41c-0.27,0.19-0.43,0.11-0.35,0.37c0.04,0.22,0.09,0.45,0.13,0.68
			c-0.1-0.21-0.18-0.42-0.27-0.63c-0.05-0.08-0.1-0.31,0.05-0.42c0.12-0.09,0.23-0.13,0.28-0.18c0.04-0.04,0.03-0.08,0.02-0.22
			c-0.03-0.13,0.06-0.35,0.2-0.43c0.25-0.16,0.49-0.18,0.56-0.28l0.06,0.3c-0.47-0.22-0.97-0.37-1.46-0.53
			c-0.5-0.15-1-0.29-1.45-0.17l0.1-0.24c0.14,0.32,0.29,0.66,0.35,1.03c0.02,0.18,0.01,0.38-0.03,0.55
			C88.1,70.94,88.03,71.1,88,71.27z"/>
	</g>
	<g>
		<path class="st0" d="M50.85,67.68c0.39-0.58,0.89-1.07,1.21-1.69c0.33-0.6,0.57-1.26,0.72-1.92c0.13-0.67,0.1-1.36,0.08-2.05
			c0-0.18-0.02-0.33,0-0.55c0.03-0.25,0.26-0.4,0.39-0.48c0.28-0.19,0.56-0.39,0.83-0.61c2.15-1.72,3.78-4.07,6.18-5.63l0.31,0.1
			c0.01-0.02,0.16,0.11,0.28,0.18l0.39,0.22l0.81,0.42l1.65,0.79L67.03,58l0.11,0.05l-0.01,0.12c-0.1,1.57,0.47,3.18,1.48,4.4
			c0.5,0.61,1.2,1.05,1.98,1.24c0.78,0.2,1.6,0.19,2.41,0.11c-0.8,0.12-1.63,0.18-2.44,0.01c-0.81-0.15-1.58-0.57-2.13-1.21
			c-1.08-1.25-1.74-2.89-1.67-4.58l0.1,0.17l-3.33-1.51l-1.66-0.78l-0.82-0.42l-0.41-0.23c-0.14-0.1-0.26-0.12-0.45-0.38l0.31,0.1
			c-2.33,1.46-3.96,3.81-6.21,5.52c-0.28,0.21-0.57,0.41-0.87,0.6c-0.15,0.1-0.25,0.16-0.27,0.28c-0.02,0.13-0.01,0.33-0.01,0.49
			c0,0.69,0.02,1.41-0.14,2.1c-0.19,0.69-0.47,1.33-0.84,1.93C51.8,66.65,51.27,67.12,50.85,67.68z"/>
	</g>
	<g>
		<path class="st0" d="M52.59,57.84c0.18,0.23,0.19,0.47,0.22,0.7c-0.03,0.23-0.04,0.47-0.22,0.7c-0.18-0.23-0.19-0.47-0.22-0.7
			C52.39,58.31,52.41,58.08,52.59,57.84z"/>
	</g>
	<g>
		<path class="st0" d="M64.49,54.96c0.61-0.2,1.21-0.27,1.81-0.39c0.61-0.07,1.2-0.19,1.84-0.18c-0.55,0.34-1.16,0.49-1.77,0.61
			C65.74,55.07,65.11,55.12,64.49,54.96z"/>
	</g>
	<g>
		<path class="st0" d="M53.1,43.88c0.06,0.24,0.06,0.48,0.06,0.73c0.01,0.24-0.05,0.52-0.04,0.66c0.01,0.17,0.07,0.48,0.04,0.71
			c-0.03,0.25-0.09,0.49-0.22,0.71l-0.11-0.7c-0.04-0.24-0.08-0.4-0.14-0.7c0.03-0.32,0.08-0.51,0.14-0.74
			C52.9,44.33,52.98,44.11,53.1,43.88z"/>
	</g>
	<g>
		<path class="st0" d="M52.52,55.34c0.17,0.34,0.34,0.59,0.43,0.98c0.04,0.37,0.02,0.77-0.24,1.08c-0.1-0.38-0.1-0.69-0.18-1
			c-0.01-0.16-0.06-0.31-0.08-0.5C52.43,55.73,52.42,55.52,52.52,55.34z"/>
	</g>
	<g>
		<path class="st0" d="M60.22,94.51c0.14,2.24,0.1,4.47,0.09,6.71c-0.07,2.24-0.12,4.47-0.35,6.71c-0.14-2.24-0.11-4.47-0.09-6.71
			C59.94,98.98,59.99,96.74,60.22,94.51z"/>
	</g>
	<g>
		<path class="st0" d="M58.55,94.66c0.17,2.21,0.17,4.42,0.19,6.63c-0.03,2.21-0.06,4.42-0.25,6.63c-0.17-2.21-0.16-4.42-0.18-6.63
			C58.34,99.08,58.36,96.87,58.55,94.66z"/>
	</g>
	<g>
		<path class="st0" d="M61.77,94.52c0.17,2.24,0.17,4.47,0.19,6.7c-0.03,2.23-0.05,4.47-0.24,6.71c-0.17-2.23-0.17-4.47-0.19-6.7
			C61.57,98.98,61.59,96.75,61.77,94.52z"/>
	</g>
	<g>
		<path class="st0" d="M57.28,96.11c0.94-0.2,1.87-0.23,2.81-0.28c0.94,0,1.88-0.01,2.81,0.15c-0.94,0.2-1.88,0.23-2.81,0.28
			C59.15,96.26,58.22,96.27,57.28,96.11z"/>
	</g>
	<g>
		<path class="st0" d="M57.35,98.33c0.9-0.19,1.8-0.2,2.69-0.24c0.9,0.02,1.8,0.02,2.7,0.2c-0.9,0.19-1.8,0.2-2.69,0.24
			C59.15,98.5,58.25,98.5,57.35,98.33z"/>
	</g>
	<g>
		<path class="st0" d="M57.25,100.18c0.91-0.2,1.81-0.23,2.72-0.28c0.91,0,1.81-0.01,2.73,0.15c-0.9,0.2-1.81,0.23-2.72,0.28
			C59.07,100.33,58.15,100.34,57.25,100.18z"/>
	</g>
	<g>
		<path class="st0" d="M57.21,102.31c0.93-0.19,1.86-0.22,2.79-0.26c0.93,0.01,1.86,0.01,2.8,0.17c-0.92,0.19-1.86,0.22-2.79,0.26
			C59.08,102.47,58.14,102.48,57.21,102.31z"/>
	</g>
	<g>
		<path class="st0" d="M57.32,104.14c0.89-0.18,1.78-0.19,2.67-0.22c0.89,0.03,1.79,0.04,2.68,0.22c-0.89,0.18-1.78,0.19-2.67,0.22
			C59.11,104.33,58.21,104.32,57.32,104.14z"/>
	</g>
	<g>
		<path class="st0" d="M57.35,106.06c0.86-0.18,1.71-0.19,2.57-0.22c0.86,0.03,1.71,0.04,2.57,0.22c-0.86,0.18-1.71,0.19-2.57,0.22
			C59.06,106.25,58.21,106.23,57.35,106.06z"/>
	</g>
	<g>
		<path class="st0" d="M82.91,35.24c-0.09,0.3-0.22,0.58-0.36,0.87c-0.14,0.29-0.36,0.49-0.4,0.75l-0.09,0.4
			c-0.02,0.14-0.01,0.3-0.04,0.44c-0.04,0.3-0.09,0.6-0.18,0.91c-0.08-0.3-0.12-0.61-0.15-0.92c-0.05-0.31-0.01-0.63,0.06-0.97
			c0.12-0.34,0.36-0.58,0.54-0.8C82.47,35.68,82.67,35.45,82.91,35.24z"/>
	</g>
	<g>
		<path class="st0" d="M40.26,70.01c0.29,0.09,0.56,0.23,0.82,0.37c0.13,0.06,0.26,0.14,0.42,0.3c0.11,0.21,0.13,0.41,0.1,0.58
			c-0.04,0.18-0.12,0.34-0.23,0.48c-0.11,0.14-0.27,0.26-0.35,0.29c-0.04,0.02-0.03,0.03-0.05,0.02c-0.03,0.01,0.1,0.06,0.14,0.2
			c0.01,0.27-0.19,0.31-0.26,0.43c0-0.16,0.13-0.32,0.06-0.37c0-0.01-0.05,0-0.16-0.11c-0.11-0.14-0.05-0.31,0.02-0.39
			c0.14-0.16,0.24-0.21,0.29-0.31c0.06-0.1,0.1-0.21,0.12-0.33c0.04-0.12,0.01-0.22,0-0.28c-0.05-0.05-0.17-0.14-0.28-0.24
			C40.67,70.45,40.45,70.25,40.26,70.01z"/>
	</g>
	<g>
		<path class="st0" d="M40.58,73.02c0.07,0.1,0.08,0.22,0.12,0.33l0.02,0.17l0.01,0.08c0,0.01,0,0.01,0,0.01
			c0-0.01-0.01-0.05-0.01-0.05l-0.01-0.03c0.14,0.04,0.38,0.19,0.57,0.28L41.56,74c0.04,0.03,0.14,0.08,0.18,0.23
			c0.03,0.16-0.04,0.23-0.07,0.28c-0.08,0.11-0.17,0.2-0.27,0.26c-0.11,0.07-0.23,0.06-0.25,0.18c-0.1-0.13,0.08-0.25,0.1-0.33
			c0.06-0.08,0.1-0.17,0.12-0.26c0.02-0.05,0-0.09,0.01-0.03c0.02,0.05,0.01,0.03-0.04,0l-0.28-0.15c-0.19-0.13-0.33-0.21-0.55-0.39
			c-0.02-0.02-0.04-0.05-0.06-0.09c-0.01-0.01-0.02-0.07-0.02-0.08v-0.03l0.02-0.09l0.04-0.16C40.52,73.24,40.55,73.14,40.58,73.02z
			"/>
	</g>
	<g>
		<path class="st0" d="M44.22,72.32c0.16,0.46-0.08,0.99-0.48,1.3l-0.09,0.06c0,0.01,0.01-0.07,0.01-0.04
			c0.03,0.09,0.07,0.26,0.05,0.37c-0.03,0.23-0.05,0.5-0.26,0.65c0.04-0.21-0.04-0.43-0.07-0.62c-0.04-0.11-0.04-0.16-0.09-0.27
			c-0.05-0.07-0.03-0.28,0.05-0.35c0.06-0.08,0.13-0.12,0.16-0.15C43.8,73.06,44.02,72.74,44.22,72.32z"/>
	</g>
	<g>
		<path class="st0" d="M43.4,74.62c-0.4,0.21-0.8,0.25-1.21,0.3c-0.41,0-0.81,0.02-1.23-0.13c0.39-0.21,0.8-0.25,1.21-0.3
			C42.58,74.49,42.99,74.47,43.4,74.62z"/>
	</g>
	<g>
		<path class="st0" d="M40.83,73.87c0.2-0.09,0.38-0.17,0.58-0.24c0.19-0.07,0.39-0.1,0.59-0.15c0.4-0.04,0.81-0.1,1.24,0.02
			c-0.38,0.23-0.77,0.31-1.17,0.4C41.67,73.95,41.26,74.03,40.83,73.87z"/>
	</g>
	<g>
		<path class="st0" d="M48.87,71.73c0.08,0.09,0.02,0.25,0.07,0.29c0.03,0.03,0.11,0.08,0.2,0.14c0.17,0.11,0.3,0.25,0.45,0.37
			l0.1,0.11l0.06,0.06c0.05,0.05,0.09,0.1,0.09,0.18c-0.01,0.25-0.07,0.28-0.14,0.39c-0.11,0.16-0.23,0.28-0.16,0.49
			c-0.25-0.09-0.22-0.46-0.15-0.63c0.02-0.08,0.06-0.23,0.05-0.18c0.01,0.02,0.01,0.04,0.03,0.06l-0.05-0.05l-0.12-0.1
			c-0.14-0.16-0.29-0.31-0.41-0.48c-0.05-0.08-0.14-0.16-0.16-0.33C48.76,71.88,48.85,71.84,48.87,71.73z"/>
	</g>
	<g>
		<path class="st0" d="M52.57,71.1c0.07,0.23,0.1,0.45,0.12,0.67c0.01,0.12,0.02,0.2-0.01,0.37c0.01,0.16-0.2,0.32-0.2,0.35
			c-0.02,0.01-0.03-0.02,0,0.11c0.04,0.14,0.05,0.25,0.04,0.37s-0.01,0.23-0.04,0.36c-0.04,0.16-0.18,0.26-0.3,0.23
			c0.1-0.06,0.13-0.18,0.09-0.24c-0.02-0.1-0.05-0.21-0.08-0.31c-0.04-0.1-0.05-0.21-0.08-0.28c-0.02-0.05-0.05-0.12-0.06-0.22
			c-0.01-0.1,0.04-0.24,0.1-0.3c0.13-0.14,0.16-0.11,0.16-0.19c0.03-0.04,0.03-0.19,0.06-0.28C52.41,71.53,52.47,71.32,52.57,71.1z"
			/>
	</g>
	<g>
		<path class="st0" d="M49.61,72.69c0.39-0.24,0.79-0.31,1.2-0.4c0.41-0.04,0.82-0.09,1.27,0.03c-0.38,0.24-0.79,0.31-1.2,0.4
			C50.46,72.76,50.04,72.81,49.61,72.69z"/>
	</g>
	<g>
		<path class="st0" d="M49.6,73.78c0.38-0.18,0.77-0.25,1.16-0.32c0.39-0.02,0.78-0.06,1.2,0.06c-0.36,0.24-0.76,0.3-1.15,0.37
			C50.41,73.91,50,73.96,49.6,73.78z"/>
	</g>
	<g>
		<path class="st0" d="M52.34,68.55c0.18,0.33,0.19,0.65,0.21,0.98c-0.03,0.32-0.04,0.65-0.22,0.97c-0.18-0.32-0.19-0.65-0.21-0.98
			C52.15,69.2,52.16,68.87,52.34,68.55z"/>
	</g>
	<g>
		<path class="st0" d="M49.66,68.78c0.18,0.32,0.2,0.65,0.23,0.97c-0.02,0.33-0.03,0.65-0.2,0.98c-0.18-0.32-0.2-0.65-0.23-0.97
			C49.48,69.43,49.48,69.11,49.66,68.78z"/>
	</g>
	<g>
		<path class="st0" d="M68.37,65.63c0.15,0.4,0.16,0.78,0.21,1.16c-0.01,0.39,0.02,0.76-0.09,1.18c-0.24-0.36-0.3-0.76-0.34-1.15
			C68.15,66.42,68.17,66.01,68.37,65.63z"/>
	</g>
	<g>
		<path class="st0" d="M71.67,65.1c0.19,0.41,0.21,0.82,0.25,1.24c-0.01,0.41-0.02,0.83-0.19,1.25c-0.19-0.41-0.21-0.82-0.25-1.24
			C71.5,65.93,71.5,65.52,71.67,65.1z"/>
	</g>
	<g>
		<path class="st0" d="M78.52,67.41c0.05,0.09,0.12,0.1,0.22,0.12c0.08,0.02,0.18,0.06,0.27,0.12c0.18,0.13,0.28,0.31,0.39,0.44
			c0.05,0.1,0.1,0.2,0.14,0.31c0.01,0.12,0.03,0.24-0.01,0.33c-0.05,0.19-0.1,0.37-0.21,0.54c-0.08-0.19-0.11-0.37-0.13-0.54
			c-0.01-0.1-0.02-0.15-0.04-0.22l-0.12-0.17c-0.09-0.17-0.18-0.31-0.26-0.44C78.75,67.77,78.44,67.65,78.52,67.41z"/>
	</g>
	<g>
		<path class="st0" d="M84.98,67.59c0.06,0.1,0.1,0.2,0.11,0.35c-0.01,0.14-0.12,0.26-0.18,0.34c-0.15,0.17-0.33,0.31-0.49,0.46
			c-0.1,0.07-0.09,0.03-0.09,0.09c-0.02,0.06,0,0.18-0.01,0.27c0,0.2,0.03,0.4,0.07,0.63c-0.19-0.13-0.32-0.34-0.4-0.56
			c-0.05-0.12-0.06-0.21-0.06-0.37c-0.03-0.17,0.16-0.37,0.24-0.41c0.17-0.11,0.33-0.24,0.51-0.35
			C84.86,67.95,84.94,67.84,84.98,67.59z"/>
	</g>
	<g>
		<path class="st0" d="M82.71,66.56c0.18,0.44,0.24,0.8,0.22,1.32c-0.08,0.25-0.15,0.4-0.19,0.59c-0.05,0.19-0.08,0.4-0.15,0.62
			c-0.11-0.2-0.16-0.42-0.18-0.65c-0.03-0.24,0.08-0.48,0.1-0.65c0.03-0.16,0.03-0.37,0.05-0.59
			C82.59,66.99,82.63,66.78,82.71,66.56z"/>
	</g>
	<g>
		<path class="st0" d="M79.3,69.4c0.55-0.19,1.08-0.27,1.62-0.39c0.55-0.07,1.09-0.19,1.67-0.15c-0.5,0.31-1.04,0.45-1.59,0.58
			C80.45,69.51,79.87,69.57,79.3,69.4z"/>
	</g>
	<g>
		<path class="st0" d="M82.65,68.96c0.13-0.1,0.31-0.11,0.46-0.1c0.16,0.02,0.28,0.08,0.42,0.11c0.25,0.13,0.5,0.25,0.69,0.52
			c-0.33,0.06-0.59-0.04-0.85-0.12C83.1,69.24,82.92,69.11,82.65,68.96z"/>
	</g>
	<g>
		<path class="st0" d="M79.38,68.18c0.52-0.24,1.03-0.32,1.54-0.41c0.52-0.03,1.04-0.12,1.59-0.02c-0.49,0.26-1.01,0.37-1.54,0.45
			C80.44,68.24,79.91,68.29,79.38,68.18z"/>
	</g>
	<g>
		<path class="st0" d="M82.79,67.69c0.13-0.11,0.3-0.14,0.47-0.12c0.16,0.03,0.28,0.1,0.42,0.15c0.22,0.13,0.49,0.23,0.69,0.49
			c-0.32,0.07-0.59,0-0.88-0.1c-0.11-0.07-0.24-0.14-0.34-0.22C83.05,67.82,82.94,67.76,82.79,67.69z"/>
	</g>
	<g>
		<path class="st0" d="M82.59,62.91c0.16,0.27,0.07,0.57,0.12,0.81c0.03,0.25,0.05,0.51,0.1,0.78c0.04,0.54,0.09,1.08-0.03,1.63
			c-0.24-0.52-0.32-1.05-0.4-1.58c-0.01-0.27-0.05-0.55,0-0.84C82.4,63.4,82.57,63.17,82.59,62.91z"/>
	</g>
	<g>
		<path class="st0" d="M72.09,68.24c0.03,0.27,0.01,0.54-0.09,0.82c-0.09,0.28-0.38,0.5-0.39,0.63c-0.07,0.11,0.06,0.33,0.13,0.61
			c0.03,0.14,0.04,0.33-0.03,0.47c-0.08,0.13-0.16,0.22-0.23,0.34c-0.03-0.14,0.03-0.28,0.03-0.4c0.01-0.11-0.02-0.19-0.08-0.29
			c-0.09-0.19-0.33-0.45-0.23-0.87c0.18-0.36,0.39-0.43,0.5-0.64C71.84,68.71,71.94,68.47,72.09,68.24z"/>
	</g>
	<g>
		<path class="st0" d="M67.89,69.06c0.14,0.17,0.34,0.24,0.52,0.39c0.09,0.06,0.17,0.14,0.25,0.21c0.05,0.06,0.27,0.18,0.19,0.49
			c-0.13,0.22-0.15,0.17-0.2,0.27c-0.04,0.07-0.05,0.15-0.08,0.24c-0.04,0.18-0.01,0.39,0,0.62c-0.18-0.15-0.3-0.36-0.34-0.62
			c-0.02-0.13,0.01-0.26,0.05-0.39c0.03-0.11,0.19-0.3,0.16-0.27c0,0.09,0.02,0.02-0.07-0.06c-0.07-0.08-0.15-0.16-0.2-0.26
			C68.06,69.51,67.87,69.32,67.89,69.06z"/>
	</g>
	<g>
		<path class="st0" d="M68.49,71.03c0.44-0.23,0.91-0.3,1.37-0.38c0.47-0.03,0.94-0.07,1.43,0.05c-0.44,0.23-0.91,0.3-1.37,0.38
			C69.45,71.11,68.98,71.15,68.49,71.03z"/>
	</g>
	<g>
		<path class="st0" d="M68.72,69.87c0.41-0.2,0.82-0.24,1.23-0.32c0.41-0.03,0.82-0.1,1.27-0.01c-0.37,0.26-0.79,0.35-1.21,0.44
			C69.57,70.01,69.14,70.03,68.72,69.87z"/>
	</g>
	<g>
		<path class="st0" d="M39.4,105.54c-0.2,0.06-0.41,0.17-0.51,0.35c-0.12,0.17,0,0.42,0.17,0.42l0.34-0.01l-0.32,0.14
			c-0.15,0.07-0.18,0.29-0.15,0.48c0.01,0.1,0.03,0.21,0.01,0.34c0,0.13-0.09,0.25-0.14,0.32c-0.13,0.14-0.07,0.33-0.09,0.55v0.63
			l-0.18-0.15c1.23-0.19,2.4-0.15,3.6-0.19c1.19-0.02,2.38-0.02,3.57,0c2.38,0,4.76,0.1,7.14,0.07c-1.18,0.16-2.38,0.22-3.57,0.26
			c-1.19,0.05-2.38,0.06-3.57,0.07c-1.19,0.02-2.38,0.02-3.57,0.01c-1.18,0.01-2.4-0.03-3.54,0.07l-0.19,0.02l0.01-0.16l0.04-0.63
			l0.02-0.32c0-0.11,0.06-0.27,0.13-0.34c0.16-0.16,0.14-0.3,0.14-0.53c-0.01-0.2,0.02-0.51,0.29-0.61l0.02,0.12
			c-0.31-0.03-0.38-0.41-0.23-0.58C38.97,105.66,39.19,105.58,39.4,105.54z"/>
	</g>
	<g>
		<path class="st0" d="M42.05,105.54c0.11,0.08,0.2,0.17,0.3,0.26c0.04,0.05,0.09,0.09,0.14,0.17c0.07,0.06,0.04,0.3-0.07,0.35
			c-0.04,0.03-0.06,0.05-0.06,0.05c0.01,0.01,0.05-0.06,0.03-0.09c-0.02-0.05,0.06,0.08,0.08,0.14c0.06,0.15,0.08,0.3,0.09,0.43
			c0,0.13,0,0.25,0.01,0.36c0.01,0.09,0.06,0.26,0.04,0.39c0,0.27-0.05,0.53-0.14,0.78c-0.09-0.25-0.12-0.51-0.19-0.74
			c-0.06-0.2-0.15-0.51-0.15-0.76c0-0.12,0-0.23-0.03-0.32c-0.01-0.06-0.02-0.04-0.08-0.21c-0.03-0.1,0.04-0.23,0.1-0.26
			c0.05-0.04,0.09-0.04,0.1-0.05s0,0.07,0.01,0.02c0-0.03-0.03-0.09-0.06-0.15C42.13,105.79,42.08,105.67,42.05,105.54z"/>
	</g>
	<g>
		<path class="st0" d="M48.3,105.43c-0.06,0.1-0.12,0.19-0.19,0.28c-0.06,0.09-0.15,0.18-0.18,0.26c-0.05,0.08-0.09,0.15-0.06,0.17
			c0.02,0.01-0.01-0.02,0.03,0c0.03,0.02,0.13,0.04,0.2,0.18l0.09,0.17L48,106.58c-0.11,0.06-0.19,0.19-0.21,0.32
			c-0.01,0.07-0.01,0.11,0.01,0.2c0.01,0.05,0.03,0.11,0.04,0.21c0.01,0.09-0.07,0.25-0.17,0.29c-0.05,0.03-0.1,0.04-0.1,0.04
			c0.01,0,0.05-0.04,0.04-0.04c0-0.02-0.02,0.03-0.02,0.07c-0.01,0.08-0.03,0.23-0.07,0.32c-0.07,0.2-0.16,0.37-0.2,0.57
			c-0.07-0.2-0.06-0.43-0.04-0.62c0.01-0.11,0-0.16-0.01-0.28c0-0.06-0.02-0.11,0.03-0.23c0.02-0.05,0.1-0.12,0.15-0.14
			c0.05-0.02,0.04-0.02,0.04-0.02c0-0.01-0.04,0.05-0.03,0.04c0-0.01-0.01-0.04-0.03-0.09c-0.04-0.09-0.08-0.26-0.05-0.39
			c0.04-0.27,0.22-0.51,0.48-0.61l-0.1,0.26c0.03,0.04,0.02,0.01-0.05-0.02c-0.06-0.03-0.17-0.15-0.17-0.25
			c-0.01-0.1,0.01-0.18,0.05-0.26l0.14-0.15c0.09-0.1,0.18-0.14,0.28-0.21C48.11,105.54,48.2,105.48,48.3,105.43z"/>
	</g>
	<g>
		<path class="st0" d="M50.98,105.42c0.19,0.12,0.38,0.25,0.54,0.4c0.08,0.08,0.18,0.13,0.26,0.29c0.09,0.16,0.02,0.5-0.33,0.49
			l0.2-0.29c0.19,0.3,0.26,0.69,0.16,1.04l-0.17-0.25c0.49,0.04,0.97,0.14,1.47,0.3c-0.5,0.1-1.02,0.12-1.53,0.1l-0.2-0.01
			l0.03-0.24c0.03-0.25,0.01-0.52-0.1-0.75l0.2-0.29c-0.11,0.01-0.05,0.05-0.06,0.01c0-0.05-0.07-0.15-0.13-0.24
			C51.2,105.82,51.09,105.62,50.98,105.42z"/>
	</g>
	<g>
		<path class="st0" d="M57.33,81.33c0,0.16,0.06,0.3,0.17,0.38c0.04,0.04,0.1,0.08,0.15,0.09c0.05,0.02,0.08-0.01,0.24,0.05
			c0.08,0.01,0.18,0.22,0.13,0.27C57.99,82.23,58,82.2,58,82.23c0,0.04,0.01,0.08,0.03,0.13c0.05,0.09,0.18,0.18,0.25,0.29h-0.3
			c0.11-0.09,0.2-0.18,0.27-0.27c0.03-0.05,0.06-0.08,0.08-0.15c0.02-0.08,0.06-0.15,0.09-0.22c0.07-0.12,0.23-0.24,0.28-0.33
			c0.08-0.1,0.11-0.24,0.17-0.38c0.04,0.14,0.05,0.29,0.02,0.46c-0.05,0.18-0.14,0.25-0.18,0.39c-0.01,0.07-0.01,0.13-0.03,0.2
			s-0.06,0.17-0.1,0.24c-0.09,0.15-0.2,0.26-0.3,0.37l-0.16,0.17l-0.14-0.17c-0.12-0.14-0.23-0.26-0.32-0.45
			c-0.08-0.14-0.03-0.62,0.06-0.36c0.02-0.01-0.11-0.04-0.2-0.1c-0.08-0.06-0.15-0.13-0.19-0.21
			C57.24,81.67,57.23,81.47,57.33,81.33z"/>
	</g>
	<g>
		<path class="st0" d="M62.47,80.96c0.03,0.16,0.01,0.32-0.03,0.48c-0.04,0.15-0.16,0.32-0.23,0.42c-0.03,0.06,0,0.02,0,0.07
			c0.01,0.04,0.06,0.16,0.03,0.31c-0.08,0.24-0.2,0.35-0.16,0.36l-0.32,0.19c-0.2-0.09-0.35-0.36-0.35-0.51l-0.04-0.25
			c-0.03-0.07-0.05-0.13-0.07-0.21c-0.04-0.14-0.11-0.32-0.13-0.48c-0.01-0.17-0.03-0.34,0-0.51c0.07,0.15,0.12,0.3,0.2,0.44
			c0.07,0.15,0.14,0.26,0.24,0.41c0.11,0.16,0.15,0.32,0.18,0.46c0.03,0.18,0.09,0.2,0.17,0.26l-0.32,0.19
			c0.04-0.31,0.22-0.4,0.21-0.46c0.01-0.01,0.01-0.04-0.01-0.14c-0.04-0.09,0.03-0.3,0.11-0.35c0.13-0.11,0.21-0.18,0.3-0.31
			C62.35,81.24,62.41,81.11,62.47,80.96z"/>
	</g>
	<g>
		<path class="st0" d="M60.95,81.29c-0.04,0.22-0.22,0.39-0.22,0.55c0,0.04,0,0.07,0.01,0.1l0.06,0.16
			c0.05,0.14-0.03,0.31-0.06,0.38c-0.08,0.2-0.19,0.38-0.28,0.57l-0.07,0.14c-0.04,0.05-0.01,0.07-0.14,0.19
			c-0.07,0.07-0.24,0.06-0.29,0.02c-0.06-0.04-0.08-0.05-0.1-0.07l-0.12-0.11l-0.45-0.47c-0.07-0.07-0.17-0.16-0.2-0.37
			c-0.01-0.25,0.18-0.34,0.2-0.37c0.08-0.02,0-0.25-0.08-0.44c-0.05-0.2-0.12-0.4-0.17-0.61c0.13,0.17,0.24,0.35,0.36,0.52
			c0.05,0.09,0.11,0.17,0.16,0.28c0.05,0.1,0.1,0.28,0,0.44c-0.09,0.13-0.11,0.18-0.1,0.15c0,0,0.04,0.08,0.12,0.14l0.44,0.4
			l0.1,0.11c0.02,0.02,0.04,0.04,0.02,0.03c-0.01-0.02-0.11-0.02-0.14,0.01c-0.05,0.05,0.02-0.03,0.03-0.06l0.08-0.13
			c0.11-0.17,0.2-0.35,0.33-0.52c0.06-0.1,0.1-0.13,0.09-0.2l-0.03-0.14c-0.01-0.07,0-0.15,0.02-0.21
			C60.63,81.55,60.83,81.47,60.95,81.29z"/>
	</g>
	<g>
		<path class="st0" d="M60.24,85.89c0.17-0.17,0.33-0.18,0.5-0.19c0.16,0.03,0.32,0.05,0.48,0.24c-0.17,0.17-0.33,0.18-0.5,0.19
			C60.55,86.09,60.39,86.07,60.24,85.89z"/>
	</g>
	<g>
		<path class="st0" d="M63.72,94.92c0.17,1.83,0.18,3.65,0.2,5.47c-0.03,1.82-0.05,3.64-0.23,5.47c-0.17-1.82-0.18-3.65-0.2-5.47
			C63.52,98.56,63.54,96.73,63.72,94.92z"/>
	</g>
	<g>
		<path class="st0" d="M63.68,94.93c0.25-0.19,0.51-0.21,0.77-0.24c0.27,0.02,0.49,0.01,0.78,0.16c-0.11,0.1-0.24,0.16-0.38,0.2
			c-0.14,0.05-0.26,0.04-0.39,0.07C64.21,95.1,63.95,95.1,63.68,94.93z"/>
	</g>
	<g>
		<path class="st0" d="M54.03,95.33c0.33-0.2,0.66-0.22,0.98-0.26c0.33,0.01,0.66,0,1,0.17c-0.32,0.2-0.65,0.22-0.98,0.26
			C54.7,95.49,54.36,95.5,54.03,95.33z"/>
	</g>
	<g>
		<path class="st0" d="M54.17,92.74c-0.04,0-0.07,0.03-0.08,0.05l0.01-0.04c0.1,0.11,0.14,0.31,0.03,0.47
			c-0.05,0.08-0.15,0.14-0.12,0.14c0.03-0.1,0.01-0.09,0.08-0.03c0.05,0.04,0.09,0.1,0.14,0.14c0.02,0.02,0.06,0.05,0.09,0.12
			c0.04,0.07,0.05,0.2-0.01,0.28c-0.12,0.17-0.25,0.17-0.36,0.18c-0.08-0.01-0.13,0.01-0.1,0c0.06-0.08-0.01-0.01,0.03,0.14
			c0.02,0.12,0.03,0.3,0.04,0.37c0,0.11,0.09,0.15,0.17,0.3c0.07,0.14,0.09,0.3,0.04,0.44c-0.07-0.3-0.32-0.31-0.52-0.63
			c-0.08-0.18-0.08-0.27-0.11-0.42c-0.01-0.06-0.03-0.14-0.03-0.24c-0.01-0.09,0.05-0.28,0.21-0.35c0.15-0.07,0.25-0.02,0.29-0.03
			c0.02,0.01,0.05-0.02,0,0.03c-0.04,0.1,0.03,0.13-0.03,0.05c-0.04-0.05-0.09-0.1-0.12-0.16l-0.07-0.11
			c-0.02-0.04-0.03-0.07-0.04-0.11c-0.01-0.05,0.02-0.12,0.04-0.15c0.11-0.12,0.16-0.1,0.18-0.13c0.06-0.05,0.13-0.16,0.1-0.28
			l-0.01-0.04l0.02-0.01C54.09,92.72,54.13,92.72,54.17,92.74z"/>
	</g>
	<g>
		<path class="st0" d="M56.02,95.08c-0.13-0.21,0.03-0.47,0.14-0.62c0.11-0.16,0.17-0.28,0.12-0.34c-0.02-0.04-0.08-0.29-0.01-0.4
			c0.05-0.13,0.06-0.17,0.11-0.26c0.07-0.17,0.11-0.35,0.16-0.55c0.13,0.18,0.18,0.4,0.17,0.62c0.01,0.1-0.05,0.24-0.05,0.3
			c-0.02,0.07-0.01,0.02,0.04,0.16c0.09,0.34-0.14,0.59-0.29,0.7C56.24,94.81,56.08,94.88,56.02,95.08z"/>
	</g>
	<g>
		<path class="st0" d="M53.91,93.38c1.91-0.25,3.84-0.33,5.76-0.42c1.92-0.04,3.84-0.1,5.76,0.01c-1.92,0.25-3.84,0.33-5.76,0.42
			C57.75,93.44,55.83,93.49,53.91,93.38z"/>
	</g>
	<g>
		<path class="st0" d="M63.47,92.46c0.05,0.11,0.07,0.22,0.11,0.33c0.01,0.05,0.02,0.11,0.01,0.21c-0.01,0.11-0.11,0.18-0.15,0.22
			c-0.14,0.12-0.23,0.27-0.24,0.42c-0.04,0.15,0.01,0.32,0.11,0.46c0.07,0.1,0.17,0.18,0.2,0.32c0.03,0.13,0.04,0.23,0.04,0.36
			c-0.17-0.19-0.26-0.35-0.46-0.44c-0.23-0.17-0.34-0.47-0.31-0.76c0.06-0.28,0.25-0.54,0.49-0.64
			C63.38,92.99,63.37,92.66,63.47,92.46z"/>
	</g>
	<g>
		<path class="st0" d="M65.37,92.88c0.17,0.14,0.33,0.21,0.5,0.36c0.18,0.14,0.29,0.48,0.18,0.74c-0.11,0.24-0.28,0.4-0.43,0.51
			c-0.15,0.12-0.29,0.22-0.4,0.41c-0.08-0.22,0.04-0.46,0.15-0.63c0.12-0.17,0.24-0.31,0.27-0.45c0.06-0.12,0.04-0.21-0.04-0.38
			C65.53,93.3,65.38,93.11,65.37,92.88z"/>
	</g>
	<g>
		<path class="st0" d="M68.24,105.73c-0.2,0.24-0.25,0.54-0.18,0.77c0.01,0.02,0.09,0.2,0.03,0.32c-0.07,0.15-0.08,0.14-0.11,0.22
			c-0.06,0.12-0.08,0.24-0.07,0.33c-0.01,0.04,0.03,0.13,0.01,0.28c-0.04,0.12-0.11,0.21-0.13,0.25c-0.06,0.1-0.07,0.23-0.11,0.37
			c-0.05,0.3-0.09,0.6-0.19,0.9c-0.08-0.3-0.12-0.62-0.14-0.93c-0.01-0.16,0.01-0.34,0.09-0.52c0.1-0.23,0.09-0.07,0.05-0.33
			c-0.01-0.21,0.06-0.4,0.15-0.55c0.03-0.06,0.12-0.18,0.11-0.17c0.01-0.02,0.01,0,0-0.13C67.7,106.18,67.93,105.83,68.24,105.73z"
			/>
	</g>
	<g>
		<path class="st0" d="M71.82,105.59c0.16,0.13,0.3,0.27,0.44,0.42c0.07,0.08,0.13,0.14,0.2,0.24c0.06,0.08,0.14,0.27,0.09,0.4
			l-0.04,0.14c0,0.01,0,0.03,0.01,0.06l0.1,0.27c0.08,0.24,0.04,0.5-0.07,0.72l-0.09-0.27c0.19,0.11,0.27,0.31,0.29,0.46
			c0.03,0.16,0,0.3,0,0.42c-0.02,0.26-0.05,0.53-0.11,0.79c-0.08-0.26-0.14-0.52-0.18-0.78s-0.1-0.52-0.19-0.54l-0.18-0.04l0.1-0.23
			c0.06-0.14,0.06-0.29,0.03-0.44c-0.01-0.07-0.06-0.16-0.09-0.29c-0.01-0.07-0.02-0.15,0-0.23c0.02-0.06,0.04-0.09,0.06-0.14
			c0.07-0.06-0.03-0.24-0.13-0.42C71.98,105.97,71.89,105.78,71.82,105.59z"/>
	</g>
	<g>
		<path class="st0" d="M80.12,105.62c-0.16,0.23-0.37,0.43-0.47,0.64c-0.09,0.21-0.02,0.41,0.12,0.52l0.23,0.18l-0.27,0.15
			c-0.27,0.14-0.38,0.5-0.23,0.77l0.08,0.14l-0.11,0.1c-0.12,0.11-0.21,0.32-0.24,0.56c-0.02,0.23-0.03,0.51-0.12,0.75
			c-0.02-0.26-0.11-0.49-0.14-0.75c-0.02-0.26-0.01-0.59,0.23-0.83l-0.03,0.24c-0.15-0.22-0.2-0.5-0.13-0.76
			c0.08-0.26,0.28-0.47,0.52-0.58l-0.04,0.33c-0.14-0.12-0.23-0.3-0.25-0.48s0.05-0.36,0.15-0.49
			C79.62,105.86,79.88,105.75,80.12,105.62z"/>
	</g>
	<g>
		<path class="st0" d="M85.29,105.51c0.15,0.13,0.33,0.15,0.52,0.19c0.19,0.04,0.42,0.2,0.52,0.41c0.11,0.21,0.12,0.45,0.08,0.67
			l-0.03,0.13c0.01-0.04-0.03-0.13,0-0.09c0.11,0.08,0.19,0.19,0.24,0.3c0.09,0.23,0.09,0.46,0.07,0.66
			c-0.05,0.2,0.03,0.17,0.12,0.45c0.15,0.44-0.04,0.83-0.16,1.19c-0.05-0.39,0.03-0.78-0.15-1.06c-0.04-0.07-0.08-0.1-0.16-0.24
			c-0.09-0.09-0.05-0.31-0.05-0.36c0.01-0.17-0.01-0.34-0.07-0.46c-0.02-0.06-0.06-0.11-0.1-0.15c-0.03-0.02-0.19-0.17-0.14-0.32
			l0.05-0.14c0.04-0.15,0.03-0.31,0-0.45c-0.04-0.15-0.13-0.26-0.29-0.35C85.58,105.79,85.36,105.7,85.29,105.51z"/>
	</g>
	<g>
		<path class="st0" d="M91.09,105.66c0.15,0.09,0.27,0.21,0.41,0.31c0.11,0.13,0.28,0.17,0.37,0.46c0.02,0.16-0.04,0.27-0.06,0.32
			c-0.01,0.05-0.01,0.1,0,0.17c0.03,0.14,0.06,0.35,0.07,0.51c0,0.7-0.08,1.36-0.27,2.03c-0.18-0.68-0.12-1.37-0.17-2.01
			c0-0.17-0.01-0.3-0.03-0.49c-0.04-0.2,0.12-0.51,0.12-0.49c0.03-0.05-0.11-0.22-0.2-0.35C91.26,105.96,91.16,105.82,91.09,105.66z
			"/>
	</g>
	<g>
		<path class="st0" d="M89.55,105.45c0.06,0.2-0.18,0.35-0.18,0.47c-0.03,0.11,0.03,0.26,0.06,0.45c0.04,0.21-0.08,0.39-0.07,0.55
			c0,0.16-0.02,0.3-0.02,0.47c-0.02,0.69-0.03,1.37-0.2,2.06c-0.18-0.68-0.2-1.38-0.23-2.07c0.01-0.17,0.04-0.37,0.07-0.56
			c0.02-0.18,0.1-0.32,0.12-0.45c0.02-0.14-0.04-0.35,0.08-0.56C89.32,105.63,89.5,105.63,89.55,105.45z"/>
	</g>
	<g>
		<path class="st0" d="M87.57,100.02c-0.03-0.27-0.06-0.54-0.08-0.82l-0.01-0.1l0.11,0.03c0.27,0.07,0.5,0.09,0.77,0.08h0.12v0.12
			l0.01,0.94l-0.17-0.19c0.22,0.02,0.44,0.06,0.67,0.09l0.13,0.02v0.16l-0.01,0.57v0.2l-0.19-0.01l-0.54-0.03l0.24-0.2
			c0.02,0.91-0.02,1.82-0.03,2.73c-0.05,0.91-0.09,1.82-0.19,2.73c-0.1-0.91-0.13-1.82-0.18-2.73c0-0.91-0.05-1.82-0.02-2.73
			l0.01-0.22l0.23,0.02l0.47,0.04l-0.19,0.19l0.02-0.57l0.13,0.18c-0.18-0.03-0.37-0.06-0.55-0.11l-0.18-0.04l0.01-0.15l0.07-0.88
			l0.12,0.12c-0.26-0.01-0.57-0.08-0.81-0.19l0.1-0.07C87.62,99.48,87.6,99.75,87.57,100.02z"/>
	</g>
	<g>
		<path class="st0" d="M87.57,100.17c-0.17,0.03-0.34,0.05-0.5,0.06l0.06-0.05c0,0.2,0.02,0.41,0.02,0.61
			c0.02,0.1-0.04-0.05,0.03-0.02l0.13-0.01c0.09-0.01,0.16-0.01,0.25-0.01h0.14l0.02,0.14c0.07,0.48,0.07,0.95,0.09,1.42
			s0.01,0.94,0,1.41c0,0.94-0.08,1.88-0.13,2.82c-0.2-0.93-0.26-1.88-0.27-2.82c-0.01-0.47-0.02-0.94-0.01-1.41l0.01-1.4l0.17,0.15
			c-0.12-0.01-0.25-0.03-0.37-0.05l-0.18-0.03c-0.04-0.02-0.03,0.02-0.11-0.05c-0.03-0.13-0.01-0.09-0.01-0.14
			c0.01-0.21,0.05-0.41,0.1-0.62l0.01-0.06h0.05C87.23,100.13,87.4,100.15,87.57,100.17z"/>
	</g>
	<g>
		<path class="st0" d="M87.52,106.56l-0.39,0.03l0.05-0.05c0.09,0.67,0.12,1.31,0.16,1.95l0.01,0.49v0.24v0.06
			c0,0,0.01,0.04-0.01,0.02c-0.01-0.06-0.15-0.08-0.1-0.07h0.11l1.01,0.01l0.51,0.01h0.22c-0.03,0.01-0.06,0.01-0.12,0.08
			c-0.04,0.1-0.02,0.08-0.02,0.07v-0.05l-0.01-0.12c-0.02-0.33-0.04-0.67-0.04-1.01s0-0.68,0.03-1.03c0.01-0.09,0.02-0.17,0.04-0.26
			c0.01-0.07,0.05-0.22,0.06-0.2l-0.46-0.12c0.18,0.01,0.32-0.01,0.53,0.04c0.09,0.18,0.01,0.2,0.03,0.3c0,0.08,0,0.16,0.01,0.25
			c0.02,0.33,0.05,0.67,0.09,1c0.04,0.33,0.08,0.67,0.11,1.01l0.01,0.13v0.07c-0.01,0.01,0.02,0.01-0.03,0.13
			c-0.06,0.1-0.11,0.1-0.16,0.11l-0.28,0.01l-0.51,0.01c-0.34,0-0.68-0.01-1.02-0.03l-0.14-0.01c0.02,0.01-0.13-0.02-0.16-0.08
			c-0.02-0.03-0.01-0.03-0.01-0.04v-0.07l-0.01-0.26L87,108.65c0.01-0.71,0.02-1.42,0.08-2.1v-0.05l0.04,0.01L87.52,106.56z"/>
	</g>
	<g>
		<path class="st0" d="M42.54,107.45c0.81-0.18,1.6-0.2,2.4-0.23c0.8,0.02,1.59,0.03,2.41,0.2c-0.78,0.18-1.59,0.2-2.4,0.23
			C44.15,107.64,43.34,107.63,42.54,107.45z"/>
	</g>
	<g>
		<path class="st0" d="M65.99,107.56c0.26-0.19,0.5-0.21,0.75-0.25c0.25,0.01,0.5,0.02,0.77,0.18c-0.23,0.19-0.49,0.21-0.75,0.25
			C66.5,107.73,66.24,107.73,65.99,107.56z"/>
	</g>
	<g>
		<path class="st0" d="M66.05,109.05c3.43-0.12,6.87-0.06,10.3-0.03c3.43,0.09,6.87,0.16,10.3,0.41c-3.43,0.12-6.87,0.07-10.3,0.03
			C72.92,109.37,69.49,109.29,66.05,109.05z"/>
	</g>
	<g>
		<path class="st0" d="M72.63,107.82c1.07-0.14,2.13-0.11,3.2-0.09c0.53,0.05,1.06,0.03,1.59,0.07c0.53,0.04,1.06,0.08,1.6,0.17
			c-0.53,0.09-1.06,0.13-1.59,0.16s-1.07,0.04-1.6,0.03C74.75,108.09,73.68,108.04,72.63,107.82z"/>
	</g>
	<g>
		<path class="st0" d="M68.05,106.54c0.71-0.18,1.4-0.19,2.1-0.22c0.7,0.03,1.39,0.04,2.09,0.22c-0.7,0.18-1.4,0.19-2.1,0.22
			C69.43,106.73,68.74,106.72,68.05,106.54z"/>
	</g>
	<g>
		<path class="st0" d="M67.79,107.9c0.8-0.19,1.59-0.21,2.38-0.24c0.79,0.02,1.58,0.02,2.39,0.19c-0.78,0.19-1.58,0.21-2.38,0.24
			C69.38,108.07,68.58,108.07,67.79,107.9z"/>
	</g>
	<g>
		<path class="st0" d="M79.77,106.82c1.03-0.17,2.06-0.18,3.08-0.2c1.02,0.03,2.05,0.05,3.06,0.24c-1.03,0.17-2.06,0.18-3.08,0.2
			C81.81,107.03,80.79,107.01,79.77,106.82z"/>
	</g>
	<g>
		<path class="st0" d="M79.6,108.01c1.17-0.15,2.35-0.13,3.52-0.13c1.17,0.05,2.35,0.09,3.51,0.3c-1.18,0.15-2.35,0.14-3.52,0.13
			C81.94,108.26,80.77,108.22,79.6,108.01z"/>
	</g>
	<g>
		<path class="st0" d="M80.37,105.48c0.86-0.16,1.71-0.15,2.56-0.16c0.44,0.03,0.83,0.04,1.26,0.05c0.42,0.02,0.86,0.03,1.28,0.16
			l-1.27,0.17c-0.42,0.06-0.88,0.04-1.29,0.05C82.06,105.71,81.21,105.68,80.37,105.48z"/>
	</g>
	<g>
		<path class="st0" d="M89.44,106.93c0.35-0.18,0.7-0.2,1.05-0.23c0.35,0.02,0.7,0.03,1.05,0.21c-0.35,0.18-0.7,0.2-1.05,0.23
			C90.14,107.12,89.79,107.11,89.44,106.93z"/>
	</g>
	<g>
		<path class="st0" d="M89.12,109.47c0.41-0.18,0.83-0.19,1.25-0.22c0.42,0.02,0.83,0.03,1.25,0.21c-0.41,0.18-0.83,0.19-1.25,0.22
			C89.95,109.66,89.54,109.65,89.12,109.47z"/>
	</g>
	<g>
		<path class="st0" d="M89.61,105.6c0.24-0.18,0.47-0.19,0.71-0.22c0.24,0.03,0.47,0.04,0.71,0.22c-0.24,0.18-0.47,0.19-0.71,0.22
			C90.08,105.8,89.84,105.78,89.61,105.6z"/>
	</g>
	<g>
		<path class="st0" d="M68.54,105.59c0.52-0.18,1.04-0.19,1.57-0.21c0.52,0.03,1.04,0.04,1.57,0.22c-0.52,0.18-1.04,0.19-1.57,0.21
			C69.58,105.78,69.06,105.77,68.54,105.59z"/>
	</g>
	<g>
		<path class="st0" d="M47.99,106.4c0.59-0.18,1.17-0.19,1.75-0.21c0.58,0.03,1.16,0.04,1.74,0.22c-0.59,0.18-1.17,0.19-1.75,0.21
			C49.15,106.59,48.57,106.58,47.99,106.4z"/>
	</g>
	<g>
		<path class="st0" d="M48.53,105.3c0.38-0.19,0.78-0.21,1.17-0.25c0.4,0.01,0.79,0.01,1.19,0.18c-0.39,0.19-0.78,0.21-1.17,0.25
			C49.32,105.46,48.93,105.46,48.53,105.3z"/>
	</g>
	<g>
		<path class="st0" d="M47.72,107.53c0.65-0.16,1.28-0.18,1.92-0.22c0.64,0.01,1.29,0,1.93,0.18c-0.64,0.17-1.28,0.2-1.92,0.25
			C49.01,107.73,48.36,107.73,47.72,107.53z"/>
	</g>
	<g>
		<path class="st0" d="M39.7,105.47c0.39-0.22,0.82-0.2,1.22-0.2c0.4,0.06,0.78,0.1,1.18,0.28c-0.4,0.18-0.82,0.16-1.22,0.15
			C40.49,105.65,40.11,105.62,39.7,105.47z"/>
	</g>
	<g>
		<path class="st0" d="M38.95,106.44c0.55-0.19,1.09-0.21,1.63-0.24c0.54,0.02,1.09,0.02,1.65,0.19c-0.53,0.19-1.08,0.21-1.63,0.24
			C40.05,106.61,39.5,106.61,38.95,106.44z"/>
	</g>
	<g>
		<path class="st0" d="M38.78,107.41c0.58-0.17,1.15-0.17,1.72-0.18c0.57,0.04,1.14,0.06,1.71,0.25c-0.57,0.17-1.15,0.17-1.72,0.18
			C39.91,107.62,39.34,107.6,38.78,107.41z"/>
	</g>
	<g>
		<path class="st0" d="M92.07,109.24c1.27,0.02,2.51-0.22,3.77-0.36l3.77-0.44l7.53-0.92l1.89-0.23c0.65-0.06,1.29-0.03,1.92-0.01
			c1.26,0.02,2.52-0.04,3.78-0.03c2.52-0.03,5.05-0.02,7.59,0c-2.52,0.13-5.05,0.25-7.58,0.33c-1.27,0.04-2.53,0.1-3.8,0.09
			c-0.63-0.01-1.26-0.03-1.87,0.03l-1.87,0.25c-2.52,0.29-5.03,0.59-7.55,0.82l-3.78,0.32C94.6,109.15,93.34,109.33,92.07,109.24z"
			/>
	</g>
	<g>
		<path class="st0" d="M122.32,107.25c0.81-0.25,1.64-0.32,2.46-0.4c0.83-0.02,1.64-0.09,2.49-0.01c-0.8,0.28-1.63,0.37-2.46,0.44
			C123.98,107.31,123.16,107.36,122.32,107.25z"/>
	</g>
</g>
</svg>
